<svg width="512" height="512" viewBox="0 0 512 512" fill="none" xmlns="http://www.w3.org/2000/svg">
<g clip-path="url(#clip0)">
<path d="M5.10503 215.458C6.32003 215.93 126.721 263.623 135.078 345.249C142.519 417.944 157.641 465.36 181.309 490.207C200.396 510.244 221.219 512.095 237.685 512.095C239.622 512.095 241.5 512.069 243.306 512.044C244.92 512.022 246.487 512.001 247.999 512.001C277.231 512.001 301.137 496.549 321.083 464.761C332.083 447.236 346.221 419.504 367.716 346.73L401.988 232.27C405.626 220.122 450.94 149.87 478.649 108.448C479.59 107.04 480.061 105.371 479.992 103.679C479.924 101.987 479.321 100.36 478.269 99.0332C477.218 97.706 475.772 96.7466 474.141 96.2932C472.51 95.8398 470.777 95.9157 469.191 96.51L342.047 144.188C324.9 54.975 289.293 0 248.115 0C221.75 0 197.8 21.846 178.857 63.175C162.375 99.136 150.925 148 146.328 201.637C126.909 197.519 105.369 195.27 81.707 194.89C56.5648 194.449 31.4321 196.2 6.59403 200.124C4.87627 200.431 3.30598 201.291 2.12248 202.573C0.938978 203.856 0.207187 205.49 0.0386373 207.227C-0.129912 208.963 0.274025 210.708 1.18888 212.194C2.10374 213.679 3.47934 214.825 5.10603 215.457L5.10503 215.458ZM451.685 120.158C429.976 153.135 390.868 213.625 386.66 227.676L352.381 342.168C328.958 421.468 307.173 473.583 273.297 490.236C281.946 465.92 281.597 420.443 272.255 354.426C272.779 328.042 305.87 271.938 318.69 252.387L305.311 243.612C304.811 244.368 293.029 262.386 281.05 284.939C275.002 296.326 270.056 306.7 266.213 316.06C265.831 313.835 265.443 311.598 265.044 309.335C263.335 299.429 260.492 289.752 256.569 280.496C294.423 197.796 316.957 174.562 347.207 159.341L451.685 120.158ZM163.313 192H200V176H165.226C166.323 167.821 167.585 159.821 169.01 152H200V136H172.215C174.664 124.794 177.452 114.086 180.561 104H208V88H185.95C188.297 81.6213 190.781 75.5687 193.402 69.842C194.319 67.842 195.249 65.8947 196.19 64H232V48H205.164C218.45 27.2 233.3 16 248.115 16C263.173 16 277.994 27.56 291.054 48H264V64H300.023C303.859 71.8121 307.275 79.8235 310.256 88H288V104H315.655C318.744 114 321.555 124.694 324.025 136H296V152H327.232C327.244 152.066 327.257 152.131 327.269 152.2C306.007 165.572 287.369 185.752 264.001 229.181V216H232V232H262.493C257.609 241.205 252.514 251.428 247.146 262.806C238.578 249.732 227.548 238.45 214.67 229.589C199.916 219.282 182.336 211.246 162.062 205.509C162.431 200.97 162.848 196.467 163.313 192ZM81.778 210.894C118.314 211.494 169.444 217.494 205.536 242.726C229.389 259.399 244.108 282.745 249.286 312.114C266.298 408.598 268.081 476.178 254.056 492.893C252.228 495.071 250.417 496 248 496C246.417 496 244.777 496.022 243.088 496.045H242.976C208.488 465.719 208 392.743 208 392H200H192C192 394.972 192.375 456.271 220.293 494.638C211.124 492.756 201.807 488.527 192.893 479.171C172.058 457.299 157.96 411.693 150.993 343.62C147.087 305.455 121.426 268.537 76.785 236.857C64.0121 227.845 50.6357 219.721 36.75 212.542C51.7213 211.224 66.7504 210.674 81.778 210.894V210.894Z" fill="white"/>
<path d="M224 176H272V192H224V176Z" fill="white"/>
<path d="M224 136H272V152H224V136Z" fill="white"/>
<path d="M224 88H272V104H224V88Z" fill="white"/>
</g>
<defs>
<clipPath id="clip0">
<rect width="512" height="512" fill="white"/>
</clipPath>
</defs>
</svg>
