<svg width="512" height="512" viewBox="0 0 512 512" fill="none" xmlns="http://www.w3.org/2000/svg">
<g clip-path="url(#clip0)">
<path d="M481.101 5.25492C479.179 1.78492 475.419 -0.249076 471.461 0.0239244C467.504 0.302924 464.068 2.85292 462.652 6.55892C462.546 6.83492 451.612 34.3249 408.882 47.4979C361.819 62.0059 329.149 78.1689 311.78 95.5389C298.82 108.498 288.486 123.091 281.062 138.913C271.598 159.083 255.277 175.404 235.107 184.868C219.285 192.292 204.693 202.626 191.733 215.586C178.773 228.546 168.438 243.139 161.015 258.96C151.55 279.131 135.23 295.452 115.06 304.915C99.2379 312.338 84.6459 322.672 71.6849 335.633C49.9719 357.346 41.7279 381.34 33.7559 404.544C33.2549 405.999 32.7569 407.452 32.2559 408.9C27.3189 423.162 14.4709 438.442 14.3469 438.589C10.9179 442.627 11.1529 448.618 14.8859 452.377C15.1609 452.654 42.5339 480.214 51.5369 489.216C66.4669 504.146 86.8219 512 109.938 512C115.04 512 120.276 511.618 125.617 510.844C154.064 506.726 182.298 491.888 205.12 469.067C218.08 456.106 228.415 441.514 235.838 425.692C245.302 405.521 261.623 389.2 281.793 379.737C297.613 372.314 312.207 361.98 325.168 349.019C338.127 336.06 348.461 321.467 355.885 305.645C365.349 285.475 381.67 269.153 401.84 259.69C417.661 252.266 432.254 241.932 445.214 228.972C469.433 204.754 492.248 154.63 498.283 112.384C506.827 52.5629 482.155 7.15892 481.101 5.25492ZM478.089 109.502C472.783 146.652 451.564 193.777 430.79 214.551C419.507 225.834 406.851 234.808 393.176 241.225C368.703 252.707 348.902 272.509 337.419 296.982C331.002 310.658 322.028 323.313 310.745 334.596C299.46 345.881 286.804 354.855 273.13 361.271C248.657 372.754 228.856 392.555 217.373 417.028C210.957 430.704 201.982 443.359 190.699 454.643C170.967 474.374 146.816 487.164 122.696 490.656C99.6699 493.989 79.5259 488.355 65.9619 474.791C59.6699 468.5 44.3589 453.098 35.6629 444.346C40.6839 437.424 47.7279 426.565 51.5339 415.571C52.0409 414.107 52.5449 412.641 53.0499 411.17C60.5999 389.193 67.7319 368.434 86.1109 350.054C97.3949 338.771 110.051 329.796 123.726 323.38C148.199 311.897 168 292.096 179.483 267.623C185.899 253.948 194.874 241.293 206.158 230.009C217.441 218.726 230.097 209.752 243.772 203.335C268.245 191.853 288.046 172.051 299.529 147.578C305.945 133.902 314.92 121.247 326.203 109.964C340.987 95.1799 371.655 80.3199 414.891 66.9909C443.391 58.2049 460.53 43.5849 470.303 31.8929C476.135 48.7139 482.764 76.7779 478.089 109.502Z" fill="white"/>
<path d="M309.913 230.839C298.986 219.912 283.208 215.464 265.488 218.306C248.981 220.956 232.551 229.753 219.225 243.079C205.899 256.405 197.102 272.834 194.452 289.342C191.608 307.063 196.059 322.841 206.985 333.767C215.758 342.54 227.657 347.139 241.18 347.139C244.499 347.139 247.918 346.862 251.41 346.302C267.917 343.652 284.347 334.854 297.673 321.528C310.999 308.201 319.796 291.772 322.446 275.265C325.29 257.543 320.839 241.765 309.913 230.839ZM283.25 307.104C272.935 317.418 260.48 324.186 248.178 326.161C237.089 327.942 227.583 325.521 221.408 319.344C215.233 313.169 212.811 303.662 214.591 292.575C216.565 280.273 223.333 267.817 233.649 257.503C246.314 244.838 262.256 237.932 275.678 237.932C283.534 237.932 290.527 240.299 295.49 245.262C308.934 258.705 303.328 287.025 283.25 307.104Z" fill="white"/>
<path d="M189.868 350.886C178.941 339.959 163.164 335.507 145.442 338.353C128.935 341.003 112.505 349.8 99.1791 363.126C85.8531 376.453 77.0561 392.882 74.4061 409.389C71.5621 427.11 76.0131 442.888 86.9391 453.815C95.7121 462.588 107.61 467.186 121.133 467.186C124.453 467.186 127.871 466.909 131.365 466.349C147.872 463.699 164.302 454.902 177.628 441.576C190.954 428.249 199.751 411.82 202.401 395.313C205.246 377.589 200.794 361.813 189.868 350.886ZM182.26 392.08C180.286 404.382 173.518 416.838 163.202 427.152C143.124 447.232 114.804 452.835 101.361 439.393C87.9171 425.949 93.5221 397.63 113.601 377.551C123.916 367.236 136.371 360.468 148.673 358.493C151.049 358.112 153.352 357.923 155.565 357.923C163.681 357.923 170.591 360.457 175.443 365.31C181.618 371.485 184.04 380.993 182.26 392.08Z" fill="white"/>
<path d="M429.959 110.792C419.032 99.8658 403.255 95.4118 385.534 98.2588C369.027 100.909 352.597 109.706 339.271 123.032C325.945 136.359 317.148 152.788 314.498 169.295C311.654 187.017 316.105 202.794 327.031 213.721C335.804 222.494 347.702 227.092 361.225 227.092C364.545 227.092 367.963 226.815 371.456 226.254C387.963 223.604 404.392 214.807 417.718 201.481C431.044 188.155 439.842 171.726 442.492 155.218C445.337 137.496 440.885 121.718 429.959 110.792ZM422.354 151.986C420.379 164.288 413.612 176.744 403.296 187.058C383.219 207.137 354.897 212.742 341.455 199.299C328.011 185.855 333.616 157.536 353.695 137.457C364.009 127.142 376.464 120.374 388.767 118.399C391.142 118.018 393.445 117.829 395.658 117.829C403.774 117.829 410.684 120.363 415.537 125.216C421.713 131.392 424.134 140.898 422.354 151.986Z" fill="white"/>
<path d="M154.301 411.511C150.632 407.237 144.193 406.745 139.92 410.414C132.458 416.818 125.349 419.668 121.567 419.668C121.538 419.668 121.511 419.668 121.484 419.668C115.865 419.613 111.235 424.121 111.172 429.753C111.11 435.386 115.625 440.002 121.257 440.065C121.357 440.066 121.455 440.066 121.555 440.066C131.178 440.066 142.692 434.914 153.204 425.893C157.478 422.223 157.969 415.785 154.301 411.511Z" fill="white"/>
<path d="M167.688 384.536C162.393 382.612 156.543 385.345 154.619 390.639C154.3 391.518 153.913 392.436 153.469 393.368C151.046 398.452 153.204 404.539 158.289 406.962C159.705 407.637 161.199 407.956 162.669 407.956C166.479 407.956 170.135 405.81 171.883 402.142C172.607 400.622 173.25 399.096 173.791 397.605C175.714 392.311 172.982 386.459 167.688 384.536Z" fill="white"/>
</g>
<defs>
<clipPath id="clip0">
<rect width="512" height="512" fill="white"/>
</clipPath>
</defs>
</svg>
