<svg width="3336" height="359" viewBox="0 0 3336 359" fill="none" xmlns="http://www.w3.org/2000/svg">
<path fill-rule="evenodd" clip-rule="evenodd" d="M241.18 167.338C227.907 167.774 213.625 170.705 203.348 179.708C198.4 184.042 195.572 188.816 193.603 195.064C191.486 201.784 190.532 209.643 189.976 216.659C189.673 220.486 189.467 224.139 188.77 227.932C188.011 232.056 182.343 231.855 182.75 235.386C183.004 237.587 182.842 240.006 187.824 245.793C189.48 248.604 192.014 249.982 195.077 251.044C200.289 252.85 212.352 253.003 217.637 251.555C223.275 250.01 229.547 246.321 234.501 243.19C240.614 239.326 247.91 231.453 253.312 224.412C258.714 217.369 264.414 210.119 274.607 206.338C278.308 204.965 280.626 204.98 284.519 204.782C286.354 204.688 289.539 205.076 291.531 205.466C293.524 205.855 294.06 206.005 295.959 206.581C297.859 207.157 298.666 207.378 298.948 207.439C299.232 207.501 298.748 205.94 298.136 204.043C297.524 202.145 296.62 200.182 296.005 198.562C295.039 195.412 294.076 194.36 292.543 191.508C290.927 188.499 289.359 186.756 287.018 184.19C284.976 181.952 282.945 179.91 280.517 178.08C276.182 174.813 269.91 171.659 263.678 169.819C257.446 167.977 248.712 167.092 241.18 167.338L241.18 167.338Z" fill="#0E9146"/>
<path fill-rule="evenodd" clip-rule="evenodd" d="M176.183 247.871C176.011 244.418 181.07 244.408 181.217 247.497C181.373 250.795 176.333 250.886 176.183 247.871ZM178.021 251.315L177.845 261.863C175.266 258.465 168.484 248.682 170.016 243.692L172.983 237.548C175.103 237.515 183.286 237.179 184.651 237.8C186.831 238.791 188.133 243.304 187.68 246.433L179.355 261.835L179.35 251.033C180.575 250.205 182.076 249.654 181.996 247.488C181.852 243.557 175.58 243.437 175.439 247.519C175.347 250.21 177.149 249.758 178.021 251.315L178.021 251.315ZM169.556 248.704L131.846 247.695C145.418 246.014 147.433 231.223 153.806 229.416C155.008 229.074 160.691 229.781 162.736 229.843C165.414 229.926 165.47 230.868 168.531 234.011C170.422 235.954 172.468 236.611 170.531 240.006C168.891 242.878 169.088 245.302 169.556 248.704H169.556ZM191.657 228.329C193.911 228.385 196.025 228.556 198.299 228.481C200.159 228.419 202.908 227.876 204.414 227.917C207.666 228.006 209.812 231.782 211.436 234.348L226.408 246.288C225.28 247.231 223.871 247.817 222.529 248.376C215.034 251.496 204.593 253.499 196.939 250.384L188.698 246.338C188.386 244.089 188.654 242.892 187.769 240.806C185.73 235.998 183.539 236.878 188.38 231.827C189.561 230.596 190.646 229.589 191.657 228.329H191.657ZM173.058 196.856L174.572 196.826L184.141 196.829L184.137 236.774L173.058 236.751V196.856H173.058ZM108.722 229.857C124.746 229.76 129.416 223.748 136.603 222.864C138.428 222.639 139.433 223.851 141.349 224.823L151.436 228.736C145.231 234.295 141.915 245.884 130.907 246.241C125.373 246.421 110.266 232.558 108.722 229.857L108.722 229.857ZM207.623 227.341C210.97 225.836 213.952 225.312 217.243 223.557C221.929 221.056 221.253 220.681 226.945 223.04L248.754 228.468C247.58 230.82 232.709 244.934 227.775 244.882C216.983 244.769 213.908 233.046 207.623 227.341H207.623ZM87.3235 210.312C88.5536 209.656 92.8589 208.578 94.7241 207.815C105.446 203.424 110.168 197.405 117.809 205.904C120.984 209.435 121.557 209.65 125.055 212.823C129.966 217.278 132.113 218.501 135.376 221.37L122.161 226.458C119.297 227.37 108.9 229.734 106.425 227.621L101.883 222.977C98.0674 218.894 92.1719 213.029 87.3235 210.312L87.3235 210.312ZM223.123 219.877C227.503 217.052 229.859 214.614 233.25 211.266C244.902 199.767 244.285 197.372 256.093 203.465C263.419 207.246 266.453 207.581 269.044 208.834C260.409 215.685 262.172 214.756 255.102 221.623C251.628 224.998 251.788 230.308 235.691 225.017C234.025 224.469 223.962 220.458 223.123 219.877L223.123 219.877ZM60.517 207.243C61.55 205.995 64.022 204.009 65.5897 202.791C75.1071 195.403 86.9169 187.723 99.7315 192.589C103.652 194.078 109.195 197.69 111.113 200.023L87.0646 208.617C84.419 209.097 83.2397 207.97 80.9495 207.166C72.4037 204.17 68.0665 205.712 60.5171 207.243L60.517 207.243ZM246.677 197.935C249.885 196.231 251.937 193.207 258.09 190.938C267.737 187.38 277.537 192.049 285.052 197.47C286.532 198.537 293.902 204.223 294.867 205.798L280.665 204.414C276.445 205.07 272.548 208.005 268.603 207.063C260.888 205.22 254.726 200.29 249.723 199.137C249.447 199.074 248.25 198.859 248.181 198.837C247.344 198.558 248.034 198.827 247.272 198.404L246.677 197.935H246.677ZM57.7782 207.272C58.7734 196.735 65.5732 188.759 72.0342 182.448C76.2203 178.358 79.9307 176.297 85.6066 179.174C88.624 180.703 92.9778 186.825 94.6683 189.692L73.2879 195.556C69.2057 197.271 58.8372 206.686 57.7783 207.272L57.7782 207.272ZM262.391 188.297C263.961 185.302 268.074 179.217 271.244 177.686C273.35 176.668 277.355 176.022 279.265 177.238C286.91 182.104 296.847 194.854 297.643 206.019L290.687 199.874C282.619 193.473 274.072 187.67 262.391 188.297V188.297ZM110.308 175.857C113.599 175.444 116.64 175.016 119.811 174.393C124.528 173.464 126.424 172.542 128.806 174.239C133.666 177.703 137.064 179.677 139.748 185.111C142.913 191.516 142.344 196.872 141.435 204.434C140.336 213.593 140.4 215.134 142.408 223.506L130.151 215.379C128.498 214.091 120.386 206.842 120.073 205.683C119.411 203.232 122.162 192.074 112.451 178.72C111.757 177.765 110.818 176.886 110.308 175.857L110.308 175.857ZM81.7839 175.802C82.6079 175.13 86.4528 173.359 87.4173 172.96C89.4667 172.113 92.4404 170.811 94.6846 170.521L104.174 175.544C106.837 175.937 108 175.532 109.541 177.416C110.384 178.447 111.789 180.339 112.597 181.641C116.282 187.577 119.383 195.698 118.523 204.462C112.48 199.153 107.193 193.637 99.5034 190.9C95.7388 189.56 96.8225 189.789 94.7861 187.202C90.7393 182.056 89.2448 177.366 81.0602 176.512L81.7839 175.802H81.7839ZM239.234 200.414C238.91 193.059 242.177 184.604 245.378 179.762C252.996 168.24 249.399 179.494 261.439 168.875L275.649 174.823C270.102 176.753 268.715 176.485 265.419 181.047C262.098 185.646 261.644 188.073 257.775 189.47C253.737 190.931 250.247 193.229 247.688 195.464L239.346 203.037L239.234 200.414H239.234ZM216.368 222.155C221.089 208.889 213.427 196.774 218.643 184.393C221.063 178.651 224.762 176.461 229.161 173.109C230.874 171.803 230.806 171.962 233.185 172.375C238.523 173.301 241.374 174.169 247.312 174.431C245.95 176.287 244.716 177.828 243.559 179.86C242.507 181.707 241.485 183.562 240.622 185.711C238.864 190.083 237.717 195.246 237.717 200.414L234.42 208.22C232.49 210.124 231.088 211.33 228.928 213.434C226.254 216.037 219.984 220.596 216.368 222.156L216.368 222.155ZM162.767 228.337C158.052 228.341 146.437 227.098 144.491 223.979C141.149 218.621 142.249 210.557 143.023 204.014C143.917 196.473 144.339 190.936 141.126 184.501C137.32 176.881 131.56 175.094 130.219 173.136L147.858 178.143C151.712 180.682 155.468 185.173 157.773 190.416C161.677 199.292 162.526 209.521 161.768 219.472C161.018 229.324 160.49 224.603 162.767 228.337L162.767 228.337ZM193.531 226.912C193.579 226.809 193.665 226.691 193.712 226.625C194.668 225.311 194.656 225.771 194.962 225.034C195.29 224.241 194.532 219.378 194.416 217.655C192.893 195.128 199.578 170.595 228.313 171.694L226.534 173.173C215.009 181.797 214.19 189.113 215.972 204.232C216.573 209.336 217.419 220.978 213.434 223.6C209.256 226.347 199.146 227.098 193.531 226.912L193.531 226.912ZM276.126 173.475C272.195 171.201 267.243 168.825 262.267 167.44L255.381 145.783C255.537 150.548 257.938 155.018 255.784 160.313C253.99 164.721 248.955 164.816 243.457 164.422C231.682 163.58 220.454 155.678 203.129 166.59C197.046 170.421 190.253 177.114 186.997 183.378C184.674 187.847 184.371 190.262 182.779 195.228L173.23 195.299C169.713 186.506 168.484 181.085 161.379 174.576C156.386 170.004 149.765 164.792 140.442 162.994C128.51 160.692 122.371 165.021 111.792 165.907C94.407 167.364 99.6272 155.427 100.313 147.266C94.1851 156.323 90.516 159.119 93.4319 169.192L79.6541 175.144C68.2845 180.953 56.1441 195.887 55.7935 210.674C62.0573 208.578 66.5338 206.556 73.4033 207.072C79.9492 207.564 84.8413 210.34 88.8243 213.073C92.2431 215.42 97.3323 220.204 100.137 223.186L110.468 233.906C113.941 237.364 117.452 240.775 122.042 243.766C126.48 246.658 130.047 248.959 135.626 251.227C143.923 254.6 153.807 256.146 162.801 253.326C165.67 252.426 167.735 251.142 169.979 250.324C171.19 252.783 176.428 262.961 178.781 263.429C187.075 253.979 185.822 251.945 188.348 247.919C194.239 250.887 197.007 252.829 204.022 253.335C215.443 254.161 227.079 248.879 235.598 242.691C242.014 238.029 246.957 233.04 252.083 227.425C253.015 226.403 253.586 225.482 254.524 224.488C255.487 223.468 256.114 223.007 256.987 221.99C268.015 209.151 281.651 200.313 299.529 209.421C297.1 199.974 296.76 194.483 291.825 187.63C290.164 185.322 289.089 184.172 287.255 182.255C284.035 178.887 280.831 176.195 276.126 173.475L276.126 173.475Z" fill="#1F1A17"/>
<path fill-rule="evenodd" clip-rule="evenodd" d="M178.687 0L191.444 4.15188L203.425 8.69569L217.037 14.2406L228.672 19.4915L241.034 25.4626L252.115 31.2601L265.735 39.2947L277.277 46.8831L290.067 56.1643L298.991 63.3618L310.522 73.3762L320.977 83.6089L339.56 105.057L356.775 129.543L356.769 142.959L356.151 155.76L355.084 170.419L353.685 183.11L351.828 196.713L349.739 209.045L346.307 224.482L342.657 237.804L337.783 252.839L333.697 263.55L327.736 277.613L321.237 290.72L306.583 315.022L288.617 338.962L275.856 343.103L263.492 346.471L249.222 349.986L236.723 352.577L223.213 355.015L210.84 356.837L195.1 358.344L181.302 358.989L165.499 359L154.049 358.421L138.835 357.098L124.362 354.968L96.7232 348.54L68.4063 338.849L60.524 327.991L53.501 317.271L45.7485 304.784L39.4222 293.696L32.9294 281.598L27.3727 270.394L21.0746 255.888L16.1979 242.963L11.3058 227.937L8.31674 216.868L4.87318 201.988L2.42714 187.563L0 159.287L0.465123 129.359L8.35451 118.508L16.3773 108.514L25.8568 97.2817L34.4463 87.8376L43.9447 77.9236L52.8825 69.1759L64.7313 58.7036L75.5141 50.0716L88.2921 40.7739L97.8943 34.51L110.981 26.6372L123.942 19.8539L150.081 8.80666L178.687 0Z" fill="black"/>
<path fill-rule="evenodd" clip-rule="evenodd" d="M178.638 6.06934L189.522 9.61089L201.309 14.0803L214.755 19.558L226.223 24.7345L238.436 30.6312L249.302 36.3189L262.676 44.2059L273.989 51.6444L286.55 60.7604L295.278 67.7985L306.599 77.6323L316.762 87.577L334.997 108.624L350.988 131.372L350.985 142.82L350.377 155.41L349.322 169.893L347.945 182.402L346.11 195.839L344.059 207.933L340.691 223.09L337.113 236.147L332.328 250.913L328.33 261.389L322.477 275.196L316.161 287.937L301.781 311.785L285.09 334.025L274.203 337.559L262.041 340.871L247.943 344.343L235.621 346.897L222.277 349.304L210.142 351.093L194.687 352.572L181.165 353.205L165.643 353.215L154.446 352.65L139.508 351.351L125.441 349.278L98.3182 342.971L72.0115 333.968L65.2873 324.705L58.3777 314.161L50.7197 301.824L44.4831 290.894L38.0693 278.945L32.62 267.956L26.4377 253.714L21.6566 241.046L16.8519 226.287L13.9278 215.461L10.548 200.851L8.17037 186.832L5.78809 159.085L6.22016 131.28L12.9514 122.022L20.8444 112.192L30.2083 101.095L38.6749 91.7867L48.0565 81.9943L56.823 73.4143L68.4559 63.1319L79.025 54.6712L91.5763 45.5387L100.967 39.4142L113.816 31.6842L126.414 25.091L152.063 14.2503L178.638 6.06934Z" fill="#FEFEFE"/>
<path fill-rule="evenodd" clip-rule="evenodd" d="M178.59 12.1367L187.601 15.068L199.192 19.4643L212.473 24.8745L223.776 29.9755L235.836 35.8002L246.491 41.3758L259.616 49.1164L270.698 56.4038L283.034 65.3556L291.564 72.2357L302.676 81.8876L312.547 91.5454L330.433 112.19L345.203 133.201L345.2 142.678L344.602 155.061L343.561 169.365L342.202 181.693L340.39 194.964L338.381 206.821L335.075 221.696L331.571 234.491L326.87 248.988L322.963 259.228L317.219 272.781L311.084 285.153L296.978 308.546L281.563 329.087L272.549 332.012L260.589 335.27L246.665 338.7L234.522 341.218L221.342 343.595L209.445 345.347L194.276 346.799L181.028 347.419L165.787 347.428L154.842 346.877L140.181 345.601L126.518 343.59L99.9143 337.402L75.6169 329.087L70.0496 321.418L63.2557 311.049L55.6909 298.863L49.544 288.092L43.2105 276.291L37.8675 265.517L31.7996 251.538L27.1154 239.128L22.3968 224.635L19.54 214.053L16.2228 199.714L13.9137 186.097L11.5762 158.881L11.9752 133.201L17.5485 125.536L25.3103 115.869L34.5597 104.909L42.9035 95.7338L52.1694 86.0631L60.7636 77.6519L72.1816 67.5609L82.5359 59.2701L94.8593 50.304L104.039 44.3164L116.651 36.7293L128.885 30.3262L154.046 19.6921L178.59 12.1367Z" fill="#08AFE6"/>
<path fill-rule="evenodd" clip-rule="evenodd" d="M186.068 243.604C184.344 241.594 182.537 239.21 181.585 236.724C181.004 235.209 180.916 234.078 180.735 232.513C180.636 231.661 180.774 230.842 181.195 230.09C182.101 228.467 183.911 227.797 185.319 226.729C186.051 226.175 186.597 225.566 186.769 224.632C187.447 220.953 187.66 217.23 187.955 213.508C188.531 206.26 189.456 198.542 191.646 191.592C193.689 185.105 196.672 180.089 201.817 175.583C212.357 166.35 226.911 163.304 240.554 162.856C243.275 162.766 246.01 162.822 248.727 162.996C253.604 163.31 258.816 164.007 263.51 165.394C269.453 167.149 275.87 170.166 280.809 173.888C283.284 175.752 285.425 177.896 287.508 180.179C289.802 182.691 291.612 184.759 293.239 187.786C293.857 188.937 294.53 190.059 295.143 191.211C295.807 192.463 296.335 193.713 296.794 195.054C297.433 196.915 298.325 198.675 298.933 200.562C299.191 201.357 299.454 202.161 299.671 202.967C299.927 203.921 300.178 205.163 299.024 205.707C298.644 205.887 298.344 205.876 298.062 205.815C297.05 205.594 295.953 205.229 294.961 204.928C294.268 204.718 293.573 204.504 292.871 204.324C292.147 204.139 291.41 203.991 290.676 203.847C289.643 203.645 288.586 203.494 287.54 203.376C286.413 203.25 285.148 203.13 284.015 203.188C282.362 203.273 280.675 203.313 279.035 203.525C277.464 203.727 276.017 204.105 274.532 204.656C265.129 208.144 259.774 214.572 253.881 222.255C251.982 224.73 249.986 227.141 247.904 229.465C245.81 231.804 243.614 234.075 241.298 236.193C239.251 238.065 237.042 239.892 234.694 241.376C229.521 244.644 223.355 248.291 217.441 249.912C215.755 250.375 213.901 250.6 212.161 250.744C210.03 250.92 207.873 250.97 205.735 250.929C203.591 250.888 201.431 250.756 199.304 250.488C197.561 250.268 195.688 249.95 194.026 249.374C190.707 248.223 187.925 246.677 186.068 243.604V243.604Z" fill="black"/>
<path fill-rule="evenodd" clip-rule="evenodd" d="M240.601 164.3C227.328 164.737 213.047 167.667 202.769 176.67C197.821 181.003 194.993 185.777 193.024 192.027C190.907 198.745 189.953 206.605 189.397 213.621C189.094 217.448 188.888 221.101 188.191 224.894C187.432 229.017 181.764 228.817 182.171 232.348C182.425 234.549 182.263 236.968 187.245 242.756C188.901 245.566 191.435 246.944 194.498 248.006C199.71 249.812 211.773 249.966 217.058 248.517C222.696 246.972 228.968 243.283 233.922 240.152C240.036 236.288 247.331 228.417 252.733 221.374C258.135 214.331 263.835 207.082 274.029 203.3C277.729 201.927 280.047 201.942 283.94 201.744C285.775 201.651 288.96 202.038 290.952 202.427C292.945 202.817 293.481 202.967 295.381 203.543C297.28 204.12 298.087 204.34 298.37 204.401C298.653 204.464 298.169 202.903 297.557 201.005C296.945 199.107 296.042 197.143 295.427 195.524C294.46 192.375 293.498 191.324 291.964 188.47C290.348 185.461 288.78 183.717 286.439 181.153C284.397 178.915 282.367 176.872 279.938 175.042C275.603 171.777 269.331 168.621 263.099 166.781C256.867 164.939 248.133 164.054 240.601 164.3L240.601 164.3Z" fill="#0E9146"/>
<path fill-rule="evenodd" clip-rule="evenodd" d="M187.323 225.12C187.998 225.838 188.114 225.588 189.527 225.588L191.358 225.461C192.458 225.42 194.267 225.6 195.256 225.441C195.987 225.324 196.367 225.358 197.123 225.348C198.54 225.33 202.041 224.346 202.888 224.584C203.122 224.65 203.384 224.761 203.607 224.853C208.308 226.778 212.701 236.916 217.566 240.16C221.87 243.03 223.879 243.023 229.067 244.308L229.452 243.7C228.883 242.728 228.785 243.037 227.744 242.716C222.433 241.077 222.799 242.029 217.86 238.765C214.939 236.834 211.072 229.783 207.923 226.661C207.463 226.205 207.162 225.693 206.638 225.252L205.077 223.996C205.567 223.772 206.402 223.619 206.96 223.431C207.556 223.229 208.156 223.002 208.767 222.789C209.794 222.43 211.324 221.796 212.301 221.302L218.779 217.864C219.384 217.895 220.266 218.13 220.884 218.228C227.429 219.266 235.266 223.9 242.176 224.609L251.735 225.091L252.116 224.345L251.694 223.783C250.065 223.591 247.751 223.831 246.086 223.636C245.164 223.529 244.128 223.581 242.713 223.336C235.75 222.136 231.007 219.87 224.499 217.675C223.258 217.257 221.943 217.011 220.659 216.74C220.904 216.354 221.63 215.975 222.074 215.648C222.916 215.029 230.924 207.636 231.493 207.068C233.213 205.347 234.916 203.647 236.636 201.924C237.494 201.065 238.467 200.338 239.328 199.476L241.962 196.966C243.4 196.797 244.989 196.919 246.33 197.189C249.639 197.855 253.432 199.612 256.586 200.89L269.863 206.259L270.459 205.874C270.459 204.707 269.492 204.663 267.728 203.951C266.624 203.506 265.55 203.015 264.443 202.584C259.988 200.85 255.533 199.123 251.114 197.303C248.168 196.089 246.599 195.775 243.533 195.557C244.599 194.204 247.684 192.138 249.133 191.035C250.797 189.77 254.153 188.251 256.111 187.727C261.606 186.256 263.887 186.353 269.382 187.726C273.272 188.698 276.79 190.304 280.417 192.118C281.596 192.708 282.638 193.324 283.765 193.913C286.202 195.185 290.998 198.474 292.898 200.208C293.8 201.031 294.727 201.797 295.589 202.66C296.923 203.992 296.647 203.873 298.278 205.164L298.743 204.671V204.525C298.693 204.062 298.516 203.867 298.162 203.516C297.26 202.617 296.419 201.557 295.47 200.698C291.654 197.243 287.216 194.032 282.54 191.71C278.937 189.921 276.321 188.542 272.434 187.246C269.581 186.295 266.49 185.52 263.482 185.3C262.321 185.215 261.09 185.342 259.93 185.424C260.911 183.925 261.855 182.362 262.795 180.82C263.784 179.197 264.645 177.846 266.021 176.455C267.093 175.37 269.293 174.13 270.8 173.765C271.908 173.496 272.983 173.445 274.084 173.253C275.83 172.947 275.366 173.212 277.077 172.455L277.094 172.055L276.672 171.619C276.116 171.343 270.303 172.425 269.526 172.736C264.283 174.823 262.245 179.113 259.488 183.637C258.897 184.607 258.568 185.686 257.506 185.94C251.57 187.353 248.573 189.784 243.989 193.36L237.401 199.384C237.401 196.023 237.379 192.916 237.919 189.739C238.587 185.803 239.825 181.85 241.811 178.447C242.899 176.582 246.793 171.339 248.186 169.373L247.573 168.76C246.613 169.022 243.47 173.686 242.764 174.746C241.109 177.231 239.958 178.641 238.797 181.556C237.454 184.93 236.972 187.694 236.346 191.228C235.944 193.502 236.187 199.753 236.054 200.485C235.93 201.168 229.473 207.126 228.494 208.108C227.638 208.965 226.631 209.714 225.8 210.557C224.991 211.377 224.069 212.186 223.167 212.944C222.224 213.738 221.331 214.512 220.348 215.269L213.892 219.098C214.303 217.376 215.468 215.959 215.603 212.238L215.729 210.281C215.725 209.497 215.854 209.009 215.851 208.2L215.856 205.011C215.838 204.536 215.742 204.518 215.724 204.042C215.699 203.361 215.759 202.631 215.733 201.95L215.386 195.808C215.188 194.565 215.364 188.961 215.361 187.261C215.359 186.025 215.572 184.59 215.799 183.414C216.214 181.284 217.432 179.477 218.665 177.707C219.228 176.9 220.084 176.136 220.627 175.383C221.539 174.117 227.838 168.563 229.473 167.049L229.044 166.457C227.963 166.427 227.736 167.283 226.945 167.865C226.343 168.309 225.818 168.854 225.205 169.309C224.147 170.093 222.761 171.35 221.82 172.291C219.672 174.439 217.691 176.47 216.093 179.176C214.018 182.692 214.014 185.558 214.014 189.711C214.014 191.176 213.839 194.704 214.063 195.907C214.242 196.87 214.071 197.892 214.235 198.919C214.3 199.328 214.261 200.044 214.259 200.486L214.497 204.902C214.658 206.274 214.55 208.181 214.39 209.555L214.252 212.601C214.209 212.988 214.09 213.575 214.027 213.968C213.698 216.033 213.314 216.845 212.545 218.731C212.001 220.069 212.342 219.79 211.036 220.405C206.3 222.632 200.977 223.799 195.766 223.992L192.71 224.119C191.599 224.119 190.705 224.243 189.65 224.241C188.616 224.24 187.505 223.908 187.323 225.035V225.12L187.323 225.12Z" fill="black"/>
<path fill-rule="evenodd" clip-rule="evenodd" d="M299.581 202.668L301.119 206.69L297.102 205.556L299.581 202.668Z" fill="black"/>
<path fill-rule="evenodd" clip-rule="evenodd" d="M171.292 243.604C173.014 241.594 174.822 239.21 175.774 236.724C176.355 235.209 176.444 234.078 176.624 232.513C176.722 231.661 176.585 230.842 176.165 230.09C175.259 228.467 173.449 227.797 172.039 226.729C171.309 226.175 170.762 225.566 170.591 224.632C169.913 220.953 169.698 217.23 169.403 213.508C168.828 206.26 167.903 198.542 165.714 191.592C163.669 185.105 160.686 180.089 155.543 175.583C145.003 166.35 130.449 163.304 116.805 162.856C114.084 162.766 111.349 162.822 108.633 162.996C103.756 163.31 98.5439 164.007 93.849 165.394C87.9063 167.149 81.4901 170.166 76.5496 173.888C74.0753 175.752 71.935 177.896 69.8514 180.179C67.5577 182.691 65.7467 184.759 64.12 187.786C63.5014 188.937 62.8297 190.059 62.217 191.211C61.5512 192.463 61.0247 193.713 60.5643 195.054C59.9268 196.915 59.0343 198.675 58.4252 200.562C58.169 201.357 57.9058 202.161 57.6885 202.967C57.4324 203.921 57.1821 205.163 58.3355 205.707C58.7144 205.887 59.0154 205.876 59.2964 205.815C60.3093 205.594 61.406 205.229 62.3988 204.928C63.0906 204.718 63.7859 204.504 64.4871 204.324C65.2132 204.139 65.9486 203.991 66.6841 203.847C67.717 203.645 68.7736 203.494 69.8195 203.376C70.9469 203.25 72.2113 203.13 73.3446 203.188C74.9973 203.273 76.6831 203.313 78.324 203.525C79.8953 203.727 81.3426 204.105 82.8265 204.656C92.2293 208.144 97.5841 214.572 103.477 222.255C105.377 224.73 107.374 227.141 109.455 229.465C111.55 231.804 113.744 234.075 116.062 236.193C118.107 238.065 120.317 239.892 122.665 241.376C127.837 244.644 134.004 248.291 139.919 249.912C141.604 250.375 143.458 250.6 145.198 250.744C147.33 250.92 149.486 250.97 151.625 250.929C153.767 250.888 155.929 250.756 158.056 250.488C159.799 250.268 161.672 249.95 163.334 249.374C166.653 248.223 169.435 246.677 171.292 243.604L171.292 243.604Z" fill="black"/>
<path fill-rule="evenodd" clip-rule="evenodd" d="M116.758 164.3C130.029 164.737 144.312 167.667 154.59 176.67C159.536 181.003 162.366 185.777 164.334 192.027C166.452 198.745 167.404 206.605 167.961 213.621C168.265 217.448 168.47 221.101 169.168 224.894C169.927 229.017 175.595 228.817 175.187 232.348C174.934 234.549 175.095 236.968 170.114 242.756C168.456 245.566 165.923 246.944 162.86 248.006C157.648 249.812 145.585 249.966 140.3 248.517C134.663 246.972 128.39 243.283 123.437 240.152C117.323 236.288 110.026 228.417 104.624 221.374C99.2223 214.331 93.524 207.082 83.3291 203.3C79.6293 201.927 77.312 201.942 73.4174 201.744C71.5841 201.651 68.3991 202.038 66.4052 202.427C64.4125 202.817 63.8777 202.967 61.9782 203.543C60.0788 204.12 59.2701 204.34 58.988 204.401C58.7058 204.464 59.1898 202.903 59.8014 201.005C60.414 199.107 61.3171 197.143 61.9322 195.524C62.8978 192.375 63.8611 191.324 65.3935 188.47C67.0108 185.461 68.5773 183.717 70.9183 181.153C72.9617 178.915 74.9911 176.872 77.4194 175.042C81.7554 171.777 88.0275 168.621 94.2583 166.781C100.49 164.939 109.226 164.054 116.758 164.3L116.758 164.3Z" fill="#0E9146"/>
<path fill-rule="evenodd" clip-rule="evenodd" d="M170.036 225.12C169.359 225.838 169.245 225.588 167.832 225.588L165.999 225.461C164.899 225.42 163.092 225.6 162.101 225.441C161.371 225.324 160.992 225.358 160.236 225.348C158.818 225.33 155.318 224.346 154.471 224.584C154.237 224.65 153.975 224.761 153.75 224.853C149.051 226.778 144.658 236.916 139.793 240.16C135.488 243.03 133.479 243.023 128.291 244.308L127.905 243.7C128.476 242.728 128.572 243.037 129.615 242.716C134.926 241.077 134.56 242.029 139.499 238.765C142.419 236.834 146.287 229.783 149.436 226.661C149.896 226.205 150.197 225.693 150.721 225.252L152.282 223.996C151.792 223.772 150.957 223.619 150.399 223.431C149.802 223.229 149.203 223.002 148.592 222.789C147.565 222.43 146.035 221.796 145.058 221.302L138.578 217.864C137.974 217.895 137.093 218.13 136.475 218.228C129.93 219.266 122.093 223.9 115.183 224.609L105.624 225.091L105.243 224.345L105.663 223.783C107.294 223.591 109.607 223.831 111.272 223.636C112.194 223.529 113.229 223.581 114.646 223.336C121.608 222.136 126.352 219.87 132.86 217.675C134.101 217.257 135.416 217.011 136.7 216.74C136.454 216.354 135.729 215.975 135.285 215.648C134.443 215.029 126.434 207.636 125.865 207.068C124.144 205.347 122.443 203.647 120.723 201.924C119.865 201.065 118.892 200.338 118.029 199.476L115.395 196.966C113.959 196.797 112.369 196.919 111.029 197.189C107.72 197.855 103.927 199.612 100.772 200.89L87.4963 206.259L86.899 205.874C86.9001 204.707 87.867 204.663 89.6307 203.951C90.7345 203.506 91.8087 203.015 92.9149 202.584C97.3713 200.85 101.824 199.123 106.245 197.303C109.191 196.089 110.76 195.775 113.825 195.557C112.759 194.204 109.675 192.138 108.225 191.035C106.562 189.77 103.204 188.251 101.248 187.727C95.7517 186.256 93.471 186.353 87.9756 187.726C84.0858 188.698 80.5691 190.304 76.9402 192.118C75.762 192.708 74.7208 193.324 73.5934 193.913C71.1557 195.185 66.3604 198.474 64.4598 200.208C63.5579 201.031 62.6312 201.797 61.7682 202.66C60.4354 203.992 60.7105 203.873 59.0802 205.164L58.6162 204.671V204.525C58.6658 204.062 58.8429 203.867 59.1958 203.516C60.0978 202.617 60.9395 201.557 61.8886 200.698C65.7052 197.243 70.1428 194.032 74.8188 191.71C78.4218 189.921 81.0366 188.542 84.9253 187.246C87.7774 186.295 90.868 185.52 93.8759 185.3C95.0364 185.215 96.2688 185.342 97.4293 185.424C96.4483 183.925 95.5039 182.362 94.5642 180.82C93.5749 179.197 92.7143 177.846 91.3378 176.455C90.2659 175.37 88.0642 174.13 86.5591 173.765C85.4506 173.496 84.3763 173.445 83.2749 173.253C81.5289 172.947 81.9917 173.212 80.2823 172.455L80.2646 172.055L80.686 171.619C81.2432 171.343 87.0561 172.425 87.8329 172.736C93.0743 174.823 95.1143 179.113 97.8696 183.637C98.4611 184.607 98.7904 185.686 99.8529 185.94C105.789 187.353 108.786 189.784 113.37 193.36L119.958 199.384C119.958 196.023 119.978 192.916 119.439 189.739C118.771 185.803 117.532 181.85 115.547 178.447C114.459 176.582 110.565 171.339 109.173 169.373L109.785 168.76C110.746 169.022 113.889 173.686 114.595 174.746C116.25 177.231 117.401 178.641 118.562 181.556C119.905 184.93 120.387 187.694 121.011 191.228C121.415 193.502 121.171 199.753 121.305 200.485C121.429 201.168 127.884 207.126 128.865 208.108C129.72 208.965 130.727 209.714 131.559 210.557C132.368 211.377 133.29 212.186 134.192 212.944C135.135 213.738 136.026 214.512 137.01 215.269L143.466 219.098C143.056 217.376 141.89 215.959 141.754 212.238L141.63 210.281C141.634 209.497 141.504 209.009 141.507 208.2L141.503 205.011C141.519 204.536 141.617 204.518 141.635 204.042C141.66 203.361 141.6 202.631 141.624 201.95L141.973 195.808C142.171 194.565 141.994 188.961 141.997 187.261C141.999 186.025 141.787 184.59 141.558 183.414C141.145 181.284 139.927 179.477 138.693 177.707C138.131 176.9 137.275 176.136 136.732 175.383C135.82 174.117 129.52 168.563 127.885 167.049L128.314 166.457C129.395 166.427 129.623 167.283 130.413 167.865C131.016 168.309 131.539 168.854 132.153 169.309C133.211 170.093 134.598 171.35 135.539 172.291C137.686 174.439 139.668 176.47 141.265 179.176C143.341 182.692 143.344 185.558 143.344 189.711C143.344 191.176 143.519 194.704 143.296 195.907C143.116 196.87 143.288 197.892 143.124 198.919C143.059 199.328 143.098 200.044 143.099 200.486L142.862 204.902C142.7 206.274 142.807 208.181 142.969 209.555L143.107 212.601C143.15 212.988 143.269 213.575 143.331 213.968C143.66 216.033 144.044 216.845 144.813 218.731C145.358 220.069 145.016 219.79 146.323 220.405C151.059 222.632 156.382 223.799 161.592 223.992L164.648 224.119C165.76 224.119 166.654 224.243 167.709 224.241C168.743 224.24 169.854 223.908 170.036 225.035V225.12L170.036 225.12Z" fill="black"/>
<path fill-rule="evenodd" clip-rule="evenodd" d="M57.778 202.668L56.2397 206.69L60.257 205.556L57.778 202.668Z" fill="black"/>
<path fill-rule="evenodd" clip-rule="evenodd" d="M178.919 67.5948C173.214 64.4617 170.642 57.2617 170.642 51.0675C170.642 44.6785 173.374 36.4055 178.791 32.6514L179.615 32.0801L180.439 32.6514C185.857 36.4067 188.588 44.6786 188.588 51.0675C188.588 57.2617 186.016 64.4616 180.312 67.5948L179.615 67.9772L178.919 67.5948V67.5948ZM194.447 154.756C193.772 150.803 194.638 146.701 196.305 143.099C198.234 138.936 201.275 135.288 204.857 132.442C206.089 131.462 207.394 130.571 208.748 129.767C212.214 127.713 216.118 126.173 220.076 125.401C223.582 124.716 227.448 124.584 230.899 125.627L231.859 125.917L231.924 126.917C232.16 130.514 231.157 134.251 229.697 137.512C228.051 141.193 225.668 144.649 222.885 147.561C221.796 148.699 220.632 149.768 219.4 150.747C215.818 153.593 211.578 155.732 207.086 156.668C203.202 157.479 199.01 157.397 195.312 155.845L194.581 155.538L194.447 154.756L194.447 154.756ZM194.97 127.949C194.086 124.254 194.649 120.321 196.001 116.813C197.563 112.761 200.207 109.128 203.412 106.219C204.515 105.218 205.689 104.295 206.918 103.453C212.511 99.6186 220.754 96.5882 227.578 98.1701L228.555 98.3956L228.686 99.3896C229.602 106.336 225.791 114.249 221.436 119.448C220.48 120.589 219.449 121.669 218.347 122.671C215.142 125.581 211.271 127.862 207.088 129.026C203.465 130.035 199.498 130.216 195.906 128.979L195.154 128.721L194.97 127.949L194.97 127.949ZM189.395 105.945C188.3 102.774 188.455 99.2726 189.343 96.0722C190.364 92.3914 192.368 88.9844 194.925 86.1642C195.804 85.1938 196.753 84.286 197.756 83.4454C202.332 79.6052 209.285 76.2596 215.402 77.0612L216.396 77.1922L216.623 78.1685C218.02 84.1785 215.371 91.4269 211.997 96.3568C211.258 97.4369 210.448 98.4699 209.57 99.4403C207.013 102.262 203.818 104.589 200.256 105.965C197.158 107.162 193.689 107.659 190.426 106.88L189.653 106.696L189.395 105.945V105.945ZM182.361 83.6355C181.456 80.9782 181.591 78.0541 182.343 75.379C183.204 72.3226 184.878 69.4965 187.012 67.1591C191.001 62.79 198.023 58.8518 204.071 59.6675L205.065 59.8021L205.288 60.7784C206.433 65.7908 204.224 71.7985 201.398 75.8972C200.782 76.7909 200.107 77.6456 199.375 78.4472C197.24 80.7858 194.578 82.7088 191.613 83.8421C189.017 84.8349 186.116 85.2351 183.389 84.574L182.617 84.3875L182.361 83.6355H182.361ZM161.466 155.845C157.77 157.397 153.578 157.479 149.693 156.668C145.202 155.732 140.96 153.593 137.38 150.747C136.146 149.768 134.983 148.699 133.895 147.56C131.111 144.649 128.728 141.193 127.082 137.512C125.623 134.251 124.62 130.514 124.854 126.917L124.921 125.917L125.88 125.626C129.33 124.584 133.197 124.716 136.703 125.401C140.66 126.173 144.566 127.712 148.03 129.767C149.386 130.571 150.69 131.462 151.922 132.442C155.504 135.288 158.545 138.936 160.473 143.099C162.14 146.701 163.008 150.803 162.332 154.756L162.199 155.538L161.466 155.845L161.466 155.845ZM160.873 128.979C157.281 130.216 153.313 130.035 149.69 129.026C145.509 127.862 141.638 125.58 138.433 122.67C137.33 121.669 136.298 120.589 135.342 119.448C130.988 114.249 127.178 106.336 128.093 99.3895L128.224 98.3955L129.2 98.17C136.026 96.5882 144.268 99.6185 149.861 103.453C151.09 104.295 152.265 105.218 153.367 106.219C156.572 109.128 159.217 112.761 160.777 116.813C162.13 120.321 162.693 124.254 161.809 127.949L161.624 128.721L160.873 128.979L160.873 128.979ZM166.353 106.88C163.09 107.659 159.621 107.162 156.523 105.965C152.961 104.589 149.767 102.262 147.21 99.4403C146.33 98.4699 145.521 97.4369 144.782 96.3568C141.409 91.4269 138.759 84.1785 140.156 78.1685L140.383 77.1922L141.377 77.0612C147.494 76.2596 154.446 79.6052 159.023 83.4454C160.026 84.286 160.975 85.1938 161.854 86.1642C164.411 88.9844 166.415 92.3914 167.436 96.0722C168.323 99.2726 168.478 102.774 167.385 105.945L167.125 106.696L166.353 106.88L166.353 106.88ZM173.39 84.574C170.663 85.2351 167.763 84.8349 165.167 83.8421C162.201 82.7088 159.539 80.7858 157.405 78.4472C156.673 77.6456 155.998 76.7909 155.381 75.8972C152.555 71.7985 150.345 65.7908 151.492 60.7784L151.715 59.8021L152.708 59.6675C158.757 58.8518 165.778 62.79 169.767 67.159C171.902 69.4965 173.576 72.3226 174.435 75.379C175.188 78.054 175.324 80.9782 174.418 83.6355L174.162 84.3875L173.39 84.574V84.574Z" fill="black"/>
<path fill-rule="evenodd" clip-rule="evenodd" d="M179.616 66.3274C184.027 63.905 187.143 57.9859 187.143 51.0681C187.143 44.1502 184.027 36.8972 179.616 33.8408C175.205 36.8972 172.089 44.1503 172.089 51.0681C172.089 57.9859 175.205 63.905 179.616 66.3274Z" fill="#FEF400"/>
<path fill-rule="evenodd" clip-rule="evenodd" d="M195.872 154.512V154.513H195.874C202.188 157.161 211.131 155.472 218.501 149.615C225.871 143.76 230.959 134.299 230.482 127.012V127.011V127.012C223.491 124.9 213.126 127.719 205.757 133.574C198.387 139.431 194.72 147.762 195.872 154.512L195.872 154.512Z" fill="#FEF400"/>
<path fill-rule="evenodd" clip-rule="evenodd" d="M196.376 127.613H196.378C202.486 129.716 210.8 127.571 217.374 121.601C223.95 115.631 228.154 106.411 227.253 99.5795H227.252C220.54 98.0248 210.958 101.321 204.384 107.291C197.809 113.259 194.873 121.329 196.376 127.613H196.376Z" fill="#FEF400"/>
<path fill-rule="evenodd" clip-rule="evenodd" d="M190.762 105.475C196.249 106.783 203.292 104.214 208.498 98.4695C213.705 92.7251 216.576 84.3552 215.215 78.4963V78.4951V78.4963C209.251 77.7136 201.203 81.3909 195.996 87.1353C190.79 92.8809 188.922 100.141 190.762 105.473V105.475L190.762 105.475Z" fill="#FEF400"/>
<path fill-rule="evenodd" clip-rule="evenodd" d="M183.73 83.17H183.731C188.229 84.2596 194.017 82.1724 198.307 77.4728C202.597 72.7743 204.978 65.9144 203.879 61.1014H203.878C198.986 60.4426 192.371 63.4352 188.081 68.1349C183.79 72.8345 182.236 78.7879 183.73 83.1688V83.17L183.73 83.17Z" fill="#FEF400"/>
<path fill-rule="evenodd" clip-rule="evenodd" d="M160.908 154.512L160.906 154.513C154.592 157.161 145.648 155.472 138.28 149.615C130.91 143.76 125.822 134.299 126.299 127.012V127.011V127.012C133.29 124.9 143.653 127.719 151.023 133.574C158.393 139.431 162.06 147.762 160.907 154.512H160.908L160.908 154.512Z" fill="#FEF400"/>
<path fill-rule="evenodd" clip-rule="evenodd" d="M160.404 127.613H160.403C154.293 129.716 145.98 127.571 139.405 121.601C132.83 115.631 128.627 106.411 129.527 99.5795C136.24 98.0248 145.821 101.321 152.396 107.291C158.971 113.259 161.907 121.329 160.403 127.613H160.404H160.404Z" fill="#FEF400"/>
<path fill-rule="evenodd" clip-rule="evenodd" d="M166.018 105.475H166.017C160.531 106.783 153.488 104.214 148.281 98.4695C143.074 92.7251 140.203 84.3552 141.565 78.4963V78.4951V78.4963C147.529 77.7136 155.577 81.3909 160.783 87.1353C165.99 92.8809 167.858 100.141 166.018 105.473V105.475L166.018 105.475Z" fill="#FEF400"/>
<path fill-rule="evenodd" clip-rule="evenodd" d="M173.049 83.17C168.551 84.2596 162.764 82.1724 158.472 77.4728C154.182 72.7743 151.801 65.9144 152.902 61.1014C157.794 60.4426 164.409 63.4352 168.699 68.1349C172.989 72.8345 174.544 78.7879 173.05 83.1688V83.17L173.049 83.17Z" fill="#FEF400"/>
<path fill-rule="evenodd" clip-rule="evenodd" d="M98.9215 251.439C93.8819 247.326 89.1598 242.828 84.8061 237.995L76.7372 242.96L57.2056 211.211L78.1243 208.762L78.5965 209.601C83.936 219.079 90.6048 227.78 98.3643 235.406C119.797 256.469 148.318 268.261 178.39 268.261C208.462 268.261 236.982 256.469 258.415 235.407C266.175 227.781 272.843 219.081 278.183 209.601L278.656 208.762L299.575 211.211L280.042 242.96L271.972 237.994C267.618 242.828 262.896 247.326 257.858 251.439L263.112 259.655L227.986 282.124L221.603 272.143C214.225 274.857 206.602 276.872 198.847 278.161V288.69H157.932V278.159C150.178 276.869 142.556 274.855 135.177 272.143L128.794 282.124L93.667 259.655L98.9214 251.439L98.9215 251.439Z" fill="black"/>
<path fill-rule="evenodd" clip-rule="evenodd" d="M178.39 269.706C135.025 269.563 97.2482 245.659 77.3365 210.31L72.7396 210.848L59.624 212.383L77.2113 240.969L85.0795 236.128C89.9704 241.664 95.3428 246.763 101.13 251.36L100.837 251.126L95.664 259.215L128.355 280.125L134.589 270.378L134.413 270.311C142.378 273.339 150.732 275.576 159.378 276.925V287.243H178.39H197.401V276.929C205.985 275.589 214.279 273.374 222.191 270.378L228.425 280.125L261.115 259.215L255.943 251.126C255.016 251.867 254.078 252.595 253.13 253.309C259.885 248.216 266.109 242.454 271.705 236.119L271.698 236.126L279.569 240.969L297.155 212.383L284.04 210.848L279.443 210.31C259.532 245.659 221.755 269.563 178.39 269.706L178.39 269.706Z" fill="#DA251D"/>
<path fill-rule="evenodd" clip-rule="evenodd" d="M172.323 237.552C172.305 236.206 172.895 232.813 172.942 231.315L173.31 222.008C173.364 220.204 173.268 204.01 173.109 202.969C172.968 202.057 173.145 201.167 173.005 200.256C172.774 198.749 172.837 196.864 172.593 195.036C172.148 191.708 168.151 182.372 166.174 179.414C163.157 174.895 159.425 171.553 155.111 168.315C150.654 164.968 145.543 162.432 140.05 161.337C132.989 159.928 127.492 160.651 120.604 162.442C115.861 163.675 106.111 165.488 101.756 163.021C99.0254 161.473 98.0751 158.529 98.2439 155.506C98.3785 153.089 99.1234 148.252 99.4705 145.591C98.6961 146.291 95.4107 151.221 94.6445 152.398C91.4985 157.232 90.7772 160.687 92.1973 166.212C92.6719 168.058 93.261 168.465 94.7933 169.494C97.9606 171.622 98.5922 172.533 102.395 173.647C104.409 174.238 105.791 174.047 107.804 174.116C109.455 174.172 107.994 174.418 110.446 174.079C115.204 173.42 118.238 172.827 122.965 171.905C124.568 171.591 126.83 171.557 128.486 171.553C131.189 171.543 140.672 173.784 143.007 174.665C148.96 176.91 152.325 180.31 155.338 185.72C159.168 192.592 161.051 201.524 161.058 209.388C161.062 213.017 161.08 214.444 160.822 217.968L160.312 223.349C160.187 224.371 160.537 224.327 161.216 225.148C162.366 226.54 165.814 230.126 166.76 231.359C167.148 231.865 171.944 237.263 172.323 237.552L172.323 237.552Z" fill="black"/>
<path fill-rule="evenodd" clip-rule="evenodd" d="M196.708 190.695C196.98 191.085 197.004 191.093 197.508 190.943L197.513 190.296C197.18 190.473 197.1 190.381 196.708 190.695V190.695Z" fill="black"/>
<path fill-rule="evenodd" clip-rule="evenodd" d="M83.8191 218.04C84.171 218.395 83.9927 218.337 84.5124 218.306C84.4627 217.953 84.5194 217.831 84.2466 217.491C83.9726 218.127 84.4415 217.717 83.8191 218.04V218.04Z" fill="black"/>
<path fill-rule="evenodd" clip-rule="evenodd" d="M184.458 236.741C184.476 235.396 183.886 232.003 183.837 230.505L183.471 221.197C183.416 219.394 183.512 203.199 183.672 202.158C183.813 201.247 183.634 200.357 183.775 199.445C184.007 197.939 183.942 196.054 184.187 194.225C184.632 190.896 188.63 181.562 190.605 178.602C193.623 174.083 197.354 170.742 201.669 167.504C206.127 164.157 211.238 161.62 216.731 160.526C223.791 159.118 229.288 159.839 236.176 161.631C240.92 162.865 250.67 164.678 255.025 162.209C257.756 160.663 258.705 157.719 258.536 154.694C258.402 152.279 257.658 147.44 257.309 144.78C258.084 145.48 261.369 150.41 262.135 151.587C265.282 156.421 266.004 159.877 264.584 165.402C264.108 167.248 263.52 167.654 261.988 168.683C258.82 170.812 258.188 171.722 254.386 172.836C252.371 173.427 250.989 173.237 248.976 173.305C247.326 173.362 248.786 173.607 246.334 173.269C241.577 172.61 238.543 172.016 233.816 171.093C232.213 170.78 229.95 170.747 228.293 170.741C225.591 170.733 216.108 172.972 213.773 173.854C207.821 176.099 204.456 179.499 201.441 184.908C197.613 191.78 195.729 200.713 195.722 208.578C195.719 212.207 195.699 213.634 195.959 217.158L196.469 222.539C196.594 223.561 196.244 223.516 195.565 224.338C194.415 225.729 190.967 229.315 190.02 230.548C189.633 231.055 184.837 236.452 184.458 236.741L184.458 236.741Z" fill="black"/>
<path fill-rule="evenodd" clip-rule="evenodd" d="M160.072 189.886C159.801 190.274 159.775 190.284 159.272 190.134L159.267 189.486C159.599 189.663 159.68 189.571 160.072 189.886V189.886Z" fill="black"/>
<path fill-rule="evenodd" clip-rule="evenodd" d="M272.96 217.231C272.61 217.585 272.788 217.527 272.268 217.497C272.317 217.143 272.261 217.021 272.534 216.682C272.808 217.317 272.338 216.907 272.96 217.231V217.231Z" fill="black"/>
<path fill-rule="evenodd" clip-rule="evenodd" d="M185.112 236.937C187.63 239.671 188.702 243.698 189.044 247.301C189.306 250.044 185.798 255.533 184.251 257.668C182.861 259.589 181.119 261.804 179.266 263.293L178.385 264L177.508 263.29C175.658 261.791 173.921 259.592 172.528 257.668C170.98 255.531 167.474 250.046 167.735 247.301C168.078 243.694 169.15 239.669 171.668 236.932V195.648H185.112V236.937L185.112 236.937Z" fill="black"/>
<path fill-rule="evenodd" clip-rule="evenodd" d="M178.39 237.413H183.931V237.409C186.22 239.67 187.744 243.293 187.869 247.413C188.113 248.924 186.237 252.913 183.295 256.976C181.617 259.294 179.915 261.189 178.527 262.372L178.389 262.483L178.252 262.372C176.865 261.189 175.162 259.294 173.484 256.976C170.543 252.913 168.667 248.924 168.91 247.413C169.034 243.293 170.558 239.67 172.849 237.409V237.413H178.39H178.39Z" fill="white"/>
<path d="M183.932 196.829H172.849V236.752H183.932V196.829Z" fill="white"/>
<path d="M178.39 250.442C179.886 250.442 181.099 249.229 181.099 247.733C181.099 246.237 179.886 245.024 178.39 245.024C176.894 245.024 175.682 246.237 175.682 247.733C175.682 249.229 176.894 250.442 178.39 250.442Z" fill="#006CB1"/>
<path d="M178.39 244.403C179.31 244.403 180.142 244.776 180.744 245.378C181.346 245.98 181.719 246.814 181.719 247.732C181.719 248.651 181.346 249.483 180.744 250.086H180.743V250.088C180.14 250.69 179.307 251.063 178.39 251.063C177.473 251.063 176.641 250.69 176.037 250.088L176.036 250.086C175.433 249.483 175.061 248.651 175.061 247.732C175.061 246.814 175.433 245.98 176.036 245.378C176.638 244.776 177.47 244.403 178.39 244.403V244.403ZM180.225 245.898C179.755 245.428 179.107 245.138 178.39 245.138C177.674 245.138 177.024 245.428 176.556 245.898C176.086 246.368 175.795 247.017 175.795 247.732C175.795 248.45 176.086 249.099 176.553 249.568L176.556 249.569C177.023 250.038 177.672 250.328 178.39 250.328C179.108 250.328 179.756 250.038 180.225 249.569L180.226 249.568C180.694 249.099 180.985 248.45 180.985 247.732C180.985 247.017 180.694 246.368 180.225 245.898V245.898Z" fill="black"/>
<path d="M178.475 250.673H178.304C178.141 250.673 178.009 250.805 178.009 250.968V262.538C178.009 262.701 178.141 262.833 178.304 262.833H178.475C178.638 262.833 178.77 262.701 178.77 262.538V250.968C178.77 250.805 178.638 250.673 178.475 250.673Z" fill="black"/>
<path fill-rule="evenodd" clip-rule="evenodd" d="M1070.19 121.811L1219.08 121.93L1218.98 307.715L1313.17 307.606L1313.21 121.767L1464.07 121.792C1462.13 42.0252 1392.15 51.6499 1303.48 51.6499L1069.83 51.7502L1070.19 121.81V121.811Z" fill="black"/>
<path fill-rule="evenodd" clip-rule="evenodd" d="M951.449 213.239L951.398 155.571C952.875 98.0257 938.533 52.7235 1044.98 51.2852L1045.11 203.023C1045.11 260.382 1057.92 305.693 952.133 307.295V307.308H951.533H779.671H779.072V307.295C703.22 306.147 688.343 282.524 685.996 248.101V229.528V210.926C687.847 174.669 700.505 149.614 779.226 148.552L779.284 213.239H951.45H951.449Z" fill="black"/>
<path fill-rule="evenodd" clip-rule="evenodd" d="M1582.39 149.263H1582.35L1582.39 51.2861C1507.44 52.1715 1491.25 74.6863 1488.29 107.851V277.137L1488.32 307.33L1582.39 307.095V149.263V149.263Z" fill="black"/>
<path d="M1610.29 180.284C1611.9 180.466 1613.48 180.558 1615 180.587C1616.52 180.649 1618.16 180.649 1619.95 180.649C1623.78 180.678 1627.39 180.193 1630.82 179.221C1634.29 178.25 1637.32 176.549 1640.02 174.181C1642.7 171.811 1644.82 168.532 1646.37 164.341C1647.92 160.181 1648.71 154.928 1648.74 148.581V52.7432H1628.7V150.039C1628.67 153.288 1628.15 155.808 1627.15 157.569C1626.12 159.361 1624.75 160.576 1623.02 161.274C1621.32 161.942 1619.38 162.276 1617.22 162.246C1616.13 162.246 1614.97 162.246 1613.76 162.216C1612.57 162.216 1611.42 162.155 1610.29 162.064V180.284V180.284Z" fill="black"/>
<path d="M1661.49 52.7432V149.856C1661.49 156.689 1662.62 162.458 1664.86 167.226C1667.11 171.994 1670.45 175.637 1674.88 178.158C1679.32 180.649 1684.81 181.893 1691.37 181.924C1697.93 181.893 1703.43 180.649 1707.86 178.158C1712.3 175.637 1715.64 171.994 1717.88 167.226C1720.13 162.458 1721.25 156.689 1721.25 149.856V52.7432H1702.31V151.132C1702.31 154.168 1701.88 156.567 1701.03 158.389C1700.18 160.212 1699 161.517 1697.45 162.338C1695.9 163.157 1694.05 163.551 1691.92 163.522C1689.79 163.551 1687.94 163.157 1686.39 162.338C1684.84 161.517 1683.66 160.212 1682.81 158.389C1681.96 156.567 1681.53 154.168 1681.53 151.132V52.7432H1661.49H1661.49Z" fill="black"/>
<path d="M1797.23 180.284C1796.26 177.945 1795.65 175.546 1795.38 173.087C1795.14 170.627 1795.02 167.864 1795.05 164.797V145.119C1795.08 140.686 1794.65 136.677 1793.83 133.154C1792.98 129.602 1791.59 126.564 1789.64 124.044C1787.7 121.524 1785.06 119.55 1781.75 118.153V117.789C1786.21 115.693 1789.49 112.535 1791.65 108.284C1793.8 104.033 1794.86 98.6582 1794.86 92.0981V82.0778C1794.9 75.5189 1793.86 70.0519 1791.77 65.71C1789.7 61.3668 1786.48 58.1181 1782.11 55.9624C1777.71 53.8056 1772.06 52.7432 1765.17 52.7432H1734.92V180.284H1754.96V128.357H1761.89C1764.92 128.326 1767.41 128.873 1769.33 129.936C1771.27 130.999 1772.7 132.729 1773.64 135.099C1774.55 137.497 1775 140.655 1775 144.572V164.615C1775 167.196 1775.07 169.322 1775.13 170.992C1775.22 172.662 1775.34 174.029 1775.52 175.122C1775.67 176.184 1775.86 177.126 1776.1 177.916C1776.31 178.705 1776.55 179.494 1776.83 180.284H1797.23L1797.23 180.284ZM1764.62 70.9631C1768.14 70.9324 1770.75 71.996 1772.39 74.0914C1774.03 76.2164 1774.85 79.5572 1774.82 84.081V96.6534C1774.82 100.024 1774.34 102.697 1773.36 104.67C1772.39 106.644 1771.03 108.071 1769.24 108.921C1767.44 109.742 1765.29 110.167 1762.8 110.136H1754.96V70.963H1764.62V70.9631Z" fill="black"/>
<path d="M1807.26 52.7432V149.856C1807.26 156.689 1808.38 162.458 1810.63 167.226C1812.88 171.994 1816.22 175.637 1820.65 178.158C1825.08 180.649 1830.58 181.893 1837.14 181.924C1843.7 181.893 1849.2 180.649 1853.63 178.158C1858.06 175.637 1861.4 171.994 1863.65 167.226C1865.9 162.458 1867.02 156.689 1867.02 149.856V52.7432H1848.07V151.132C1848.07 154.168 1847.65 156.567 1846.8 158.389C1845.95 160.212 1844.76 161.517 1843.21 162.338C1841.66 163.157 1839.81 163.551 1837.69 163.522C1835.56 163.551 1833.71 163.157 1832.16 162.338C1830.61 161.517 1829.43 160.212 1828.58 158.389C1827.73 156.567 1827.3 154.168 1827.3 151.132V52.7432H1807.26H1807.26Z" fill="black"/>
<path d="M1878.13 83.3528C1878.13 86.9663 1878.46 90.3981 1879.22 93.6469C1879.95 96.8969 1881.17 100.085 1882.87 103.243C1884.57 106.371 1886.81 109.559 1889.67 112.839C1892.49 116.119 1896.02 119.581 1900.18 123.255C1904.52 127.051 1907.95 130.452 1910.44 133.459C1912.96 136.495 1914.72 139.41 1915.78 142.204C1916.82 144.968 1917.33 147.882 1917.3 150.949C1917.3 153.987 1916.88 156.385 1916.03 158.207C1915.18 160.03 1913.99 161.335 1912.44 162.155C1910.89 162.975 1909.04 163.369 1906.92 163.339C1904.79 163.369 1902.94 162.975 1901.39 162.155C1899.84 161.335 1898.66 160.03 1897.81 158.207C1896.96 156.385 1896.53 153.987 1896.53 150.949V141.839H1877.58V149.674C1877.58 156.507 1878.71 162.276 1880.95 167.044C1883.2 171.811 1886.54 175.456 1890.97 177.976C1895.41 180.466 1900.9 181.711 1907.46 181.742C1914.02 181.711 1919.52 180.466 1923.95 177.976C1928.39 175.456 1931.73 171.811 1933.97 167.044C1936.22 162.276 1937.34 156.507 1937.34 149.674C1937.37 146.061 1937.01 142.629 1936.25 139.38C1935.52 136.101 1934.31 132.912 1932.61 129.784C1930.91 126.656 1928.66 123.468 1925.8 120.188C1922.98 116.908 1919.49 113.447 1915.3 109.772C1910.96 105.976 1907.52 102.575 1905.03 99.5389C1902.51 96.5321 1900.75 93.6174 1899.69 90.8231C1898.66 88.0595 1898.14 85.1141 1898.17 82.0778C1898.2 77.5529 1899.05 74.3336 1900.78 72.3598C1902.51 70.4167 1904.97 69.4451 1908.19 69.5053C1911.41 69.4451 1913.87 70.4167 1915.6 72.3598C1917.33 74.3336 1918.18 77.5529 1918.21 82.0778V87.3618H1937.16V83.3528C1937.16 76.5199 1936.04 70.72 1933.85 65.9531C1931.63 61.185 1928.33 57.5714 1923.95 55.051C1919.58 52.5613 1914.14 51.3158 1907.65 51.2852C1901.15 51.3158 1895.71 52.5613 1891.34 55.051C1886.97 57.5714 1883.66 61.185 1881.44 65.9531C1879.25 70.72 1878.13 76.5199 1878.13 83.3528V83.3528Z" fill="black"/>
<path d="M1993.28 52.7432H1963.94L1943.54 180.284H1961.94L1965.4 157.145H1990L1993.46 180.284H2013.69L1993.28 52.7432V52.7432ZM1977.43 75.3359H1977.79L1987.27 139.836H1967.95L1977.43 75.3359V75.3359Z" fill="black"/>
<path d="M2065.8 180.284H2086.39V52.7432H2068.54V129.085H2068.17L2047.95 52.7432H2022.8V180.284H2040.84V87.9084H2041.2L2065.8 180.284Z" fill="black"/>
<path d="M2123.19 70.9633H2144.14V180.284H2164.19V70.9633H2185.14V52.7432H2123.19V70.9633Z" fill="black"/>
<path d="M2213.92 70.9633H2248.55V52.7432H2193.88V180.284H2248.55V162.064H2213.92V124.712H2241.44V106.492H2213.92V70.9633Z" fill="black"/>
<path d="M2306.66 180.284H2327.26L2299.38 109.59L2327.26 52.7432H2307.21L2281.34 107.95H2280.97V52.7432H2260.93V180.284H2280.97V141.111L2287.17 129.449L2306.66 180.284Z" fill="black"/>
<path d="M2379.18 180.284H2399.77V52.7432H2381.92V129.085H2381.55L2361.33 52.7432H2336.18V180.284H2354.22V87.9084H2354.58L2379.18 180.284Z" fill="black"/>
<path d="M2432.57 82.0778C2432.6 77.5529 2433.54 74.3336 2435.36 72.3598C2437.22 70.4167 2439.74 69.4451 2442.95 69.5053C2446.17 69.4451 2448.69 70.4167 2450.55 72.3598C2452.37 74.3336 2453.31 77.5529 2453.34 82.0778V150.949C2453.31 155.474 2452.37 158.693 2450.55 160.667C2448.69 162.61 2446.17 163.582 2442.95 163.522C2439.74 163.582 2437.22 162.61 2435.36 160.667C2433.54 158.693 2432.6 155.474 2432.57 150.949V82.0778V82.0778ZM2412.53 149.674C2412.53 156.507 2413.71 162.276 2416.05 167.044C2418.39 171.811 2421.79 175.456 2426.31 177.976C2430.84 180.466 2436.4 181.711 2442.95 181.742C2449.51 181.711 2455.07 180.466 2459.6 177.976C2464.12 175.456 2467.52 171.811 2469.86 167.044C2472.2 162.276 2473.38 156.507 2473.38 149.674V83.3528C2473.38 76.5199 2472.2 70.72 2469.86 65.9531C2467.52 61.185 2464.12 57.5714 2459.6 55.051C2455.07 52.5613 2449.51 51.3158 2442.95 51.2852C2436.4 51.3158 2430.84 52.5613 2426.31 55.051C2421.79 57.5714 2418.39 61.185 2416.05 65.9531C2413.71 70.72 2412.53 76.5199 2412.53 83.3528V149.674Z" fill="black"/>
<path d="M2486.32 180.284H2539.34V162.064H2506.36V52.7432H2486.32V180.284Z" fill="black"/>
<path d="M2566.49 82.0778C2566.52 77.5529 2567.46 74.3336 2569.28 72.3598C2571.14 70.4167 2573.66 69.4451 2576.88 69.5053C2580.1 69.4451 2582.62 70.4167 2584.47 72.3598C2586.29 74.3336 2587.23 77.5529 2587.26 82.0778V150.949C2587.23 155.474 2586.29 158.693 2584.47 160.667C2582.62 162.61 2580.1 163.582 2576.88 163.522C2573.66 163.582 2571.14 162.61 2569.28 160.667C2567.46 158.693 2566.52 155.474 2566.49 150.949V82.0778V82.0778ZM2546.45 149.674C2546.45 156.507 2547.63 162.276 2549.97 167.044C2552.31 171.811 2555.71 175.456 2560.24 177.976C2564.76 180.466 2570.32 181.711 2576.88 181.742C2583.44 181.711 2588.99 180.466 2593.52 177.976C2598.04 175.456 2601.44 171.811 2603.78 167.044C2606.12 162.276 2607.3 156.507 2607.3 149.674V83.3528C2607.3 76.5199 2606.12 70.72 2603.78 65.9531C2601.44 61.185 2598.04 57.5714 2593.52 55.051C2588.99 52.5613 2583.44 51.3158 2576.88 51.2852C2570.32 51.3158 2564.76 52.5613 2560.24 55.051C2555.71 57.5714 2552.31 61.185 2549.97 65.9531C2547.63 70.72 2546.45 76.5199 2546.45 83.3528V149.674Z" fill="black"/>
<path d="M2650.3 127.445H2659.41V150.949C2659.41 153.956 2658.98 156.385 2658.13 158.207C2657.28 160.03 2656.1 161.335 2654.55 162.155C2653 162.975 2651.15 163.369 2649.02 163.339C2646.89 163.369 2645.04 162.975 2643.49 162.155C2641.94 161.335 2640.76 160.03 2639.91 158.207C2639.06 156.385 2638.63 153.956 2638.63 150.949V82.0778C2638.66 77.5529 2639.61 74.3336 2641.43 72.3598C2643.28 70.4167 2645.8 69.4451 2649.02 69.5053C2652.24 69.4451 2654.76 70.4167 2656.61 72.3598C2658.43 74.3336 2659.37 77.5529 2659.41 82.0778V95.7423H2678.35V83.3528C2678.35 76.52 2677.23 70.72 2674.98 65.9531C2672.74 61.185 2669.4 57.5714 2664.96 55.051C2660.53 52.5613 2655.03 51.3158 2648.47 51.2852C2641.91 51.3158 2636.42 52.5613 2631.98 55.051C2627.55 57.5714 2624.21 61.185 2621.96 65.9531C2619.72 70.72 2618.59 76.5199 2618.59 83.3528V149.674C2618.59 156.507 2619.72 162.276 2621.96 167.044C2624.21 171.811 2627.55 175.456 2631.98 177.976C2636.42 180.466 2641.91 181.711 2648.47 181.742C2655.03 181.711 2660.53 180.466 2664.96 177.976C2669.4 175.456 2672.74 171.811 2674.98 167.044C2677.23 162.276 2678.35 156.507 2678.35 149.674V109.225H2650.3V127.445V127.445Z" fill="black"/>
<path d="M2691.3 180.284H2711.34V52.7432H2691.3V180.284Z" fill="black"/>
<path d="M2754.16 180.284H2774.2V52.7432H2754.16V180.284Z" fill="black"/>
<path d="M2831.59 180.284H2852.18V52.7432H2834.33V129.085H2833.96L2813.73 52.7432H2788.6V180.284H2806.63V87.9084H2807L2831.59 180.284Z" fill="black"/>
<path d="M2886.61 70.9633H2919.6V52.7432H2866.57V180.284H2886.61V127.628H2912.49V109.408H2886.61V70.9633Z" fill="black"/>
<path d="M2947.66 82.0778C2947.69 77.5529 2948.63 74.3336 2950.45 72.3598C2952.3 70.4167 2954.82 69.4451 2958.04 69.5053C2961.26 69.4451 2963.78 70.4167 2965.63 72.3598C2967.46 74.3336 2968.4 77.5529 2968.43 82.0778V150.949C2968.4 155.474 2967.46 158.693 2965.63 160.667C2963.78 162.61 2961.26 163.582 2958.04 163.522C2954.82 163.582 2952.3 162.61 2950.45 160.667C2948.63 158.693 2947.69 155.474 2947.66 150.949V82.0778V82.0778ZM2927.62 149.674C2927.62 156.507 2928.8 162.276 2931.14 167.044C2933.48 171.811 2936.88 175.456 2941.4 177.976C2945.93 180.466 2951.48 181.711 2958.04 181.742C2964.6 181.711 2970.16 180.466 2974.68 177.976C2979.21 175.456 2982.61 171.811 2984.95 167.044C2987.29 162.276 2988.47 156.507 2988.47 149.674V83.3528C2988.47 76.5199 2987.29 70.72 2984.95 65.9531C2982.61 61.185 2979.21 57.5714 2974.68 55.051C2970.16 52.5613 2964.6 51.3158 2958.04 51.2852C2951.48 51.3158 2945.93 52.5613 2941.4 55.051C2936.88 57.5714 2933.48 61.185 2931.14 65.9531C2928.8 70.72 2927.62 76.5199 2927.62 83.3528V149.674Z" fill="black"/>
<path d="M3063.72 180.284C3062.75 177.945 3062.14 175.546 3061.87 173.087C3061.62 170.627 3061.5 167.864 3061.53 164.797V145.119C3061.56 140.686 3061.14 136.677 3060.32 133.154C3059.47 129.602 3058.07 126.564 3056.13 124.044C3054.18 121.524 3051.54 119.55 3048.23 118.153V117.789C3052.69 115.693 3055.97 112.535 3058.13 108.284C3060.29 104.033 3061.35 98.6582 3061.35 92.0981V82.0778C3061.38 75.5189 3060.35 70.0519 3058.25 65.71C3056.19 61.3668 3052.97 58.1181 3048.59 55.9624C3044.19 53.8056 3038.54 52.7432 3031.65 52.7432H3001.4V180.284H3021.45V128.357H3028.37C3031.41 128.326 3033.9 128.873 3035.81 129.936C3037.75 130.999 3039.18 132.729 3040.12 135.099C3041.03 137.497 3041.49 140.655 3041.49 144.572V164.615C3041.49 167.196 3041.55 169.322 3041.61 170.992C3041.7 172.662 3041.82 174.029 3042.01 175.122C3042.16 176.184 3042.34 177.126 3042.58 177.916C3042.79 178.705 3043.04 179.494 3043.31 180.284H3063.72V180.284ZM3031.1 70.9631C3034.63 70.9324 3037.24 71.996 3038.88 74.0914C3040.52 76.2164 3041.34 79.5572 3041.31 84.081V96.6534C3041.31 100.024 3040.82 102.697 3039.85 104.67C3038.88 106.644 3037.51 108.071 3035.72 108.921C3033.93 109.742 3031.77 110.167 3029.28 110.136H3021.45V70.963H3031.1V70.9631Z" fill="black"/>
<path d="M3102.34 52.7432H3074.46V180.284H3091.96V90.0947H3092.33L3106.9 180.284H3125.85L3139.33 88.8186H3139.69V180.284H3158.65V52.7432H3130.77L3117.28 143.297H3116.91L3102.34 52.7432Z" fill="black"/>
<path d="M3217.68 52.7432H3188.35L3167.94 180.284H3186.34L3189.8 157.145H3214.4L3217.86 180.284H3238.09L3217.68 52.7432V52.7432ZM3201.83 75.3359H3202.19L3211.67 139.836H3192.35L3201.83 75.3359V75.3359Z" fill="black"/>
<path d="M3244.83 83.3528C3244.83 86.9663 3245.16 90.3981 3245.92 93.6469C3246.65 96.8969 3247.87 100.085 3249.57 103.243C3251.27 106.371 3253.51 109.559 3256.37 112.839C3259.19 116.119 3262.71 119.581 3266.88 123.255C3271.22 127.051 3274.65 130.452 3277.14 133.459C3279.66 136.495 3281.42 139.41 3282.48 142.204C3283.52 144.968 3284.03 147.882 3284 150.949C3284 153.987 3283.58 156.385 3282.73 158.207C3281.88 160.03 3280.69 161.335 3279.14 162.155C3277.59 162.975 3275.74 163.369 3273.62 163.339C3271.49 163.369 3269.64 162.975 3268.09 162.155C3266.54 161.335 3265.36 160.03 3264.51 158.207C3263.66 156.385 3263.23 153.987 3263.23 150.949V141.839H3244.28V149.674C3244.28 156.507 3245.41 162.276 3247.65 167.044C3249.9 171.811 3253.24 175.456 3257.67 177.976C3262.11 180.466 3267.6 181.711 3274.16 181.742C3280.72 181.711 3286.22 180.466 3290.65 177.976C3295.09 175.456 3298.43 171.811 3300.67 167.044C3302.92 162.276 3304.04 156.507 3304.04 149.674C3304.07 146.061 3303.71 142.629 3302.95 139.38C3302.22 136.101 3301.01 132.912 3299.31 129.784C3297.61 126.656 3295.36 123.468 3292.5 120.188C3289.68 116.908 3286.19 113.447 3282 109.772C3277.66 105.976 3274.22 102.575 3271.73 99.5389C3269.21 96.5321 3267.45 93.6174 3266.39 90.8231C3265.36 88.0595 3264.84 85.1141 3264.87 82.0778C3264.9 77.5529 3265.75 74.3336 3267.48 72.3598C3269.21 70.4167 3271.67 69.4451 3274.89 69.5053C3278.11 69.4451 3280.57 70.4167 3282.3 72.3598C3284.03 74.3336 3284.88 77.5529 3284.91 82.0778V87.3618H3303.86V83.3528C3303.86 76.5199 3302.74 70.72 3300.55 65.9531C3298.33 61.185 3295.03 57.5714 3290.65 55.051C3286.28 52.5613 3280.84 51.3158 3274.35 51.2852C3267.85 51.3158 3262.41 52.5613 3258.04 55.051C3253.66 57.5714 3250.35 61.185 3248.14 65.9531C3245.95 70.72 3244.83 76.5199 3244.83 83.3528V83.3528Z" fill="black"/>
<path d="M3315.52 180.284H3335.56V52.7432H3315.52V180.284Z" fill="black"/>
<path d="M1646.81 204.517H1623.2V306.549H1639.23V268.214H1646.81C1654.83 268.19 1660.8 266.027 1664.79 261.728C1668.75 257.427 1670.71 251.185 1670.71 242.998V229.734C1670.71 221.547 1668.75 215.303 1664.79 211.004C1660.8 206.703 1654.83 204.541 1646.81 204.517V204.517ZM1646.81 219.093C1648.51 219.069 1649.94 219.361 1651.11 219.967C1652.3 220.551 1653.17 221.571 1653.78 222.98C1654.39 224.39 1654.68 226.308 1654.68 228.713V244.018C1654.68 246.423 1654.39 248.342 1653.78 249.751C1653.17 251.16 1652.3 252.157 1651.11 252.763C1649.94 253.371 1648.51 253.663 1646.81 253.638H1639.23V219.093H1646.81V219.093Z" fill="black"/>
<path d="M1692.87 227.983C1692.89 224.364 1693.65 221.789 1695.1 220.21C1696.59 218.655 1698.6 217.877 1701.18 217.926C1703.75 217.877 1705.77 218.655 1707.25 220.21C1708.71 221.789 1709.46 224.364 1709.49 227.983V283.08C1709.46 286.7 1708.71 289.276 1707.25 290.854C1705.77 292.409 1703.75 293.187 1701.18 293.138C1698.6 293.187 1696.59 292.409 1695.1 290.854C1693.65 289.276 1692.89 286.7 1692.87 283.08V227.983ZM1676.84 282.06C1676.84 287.526 1677.78 292.142 1679.65 295.956C1681.52 299.771 1684.25 302.685 1687.86 304.702C1691.48 306.693 1695.93 307.689 1701.18 307.714C1706.42 307.689 1710.87 306.693 1714.49 304.702C1718.11 302.685 1720.83 299.771 1722.7 295.956C1724.57 292.142 1725.52 287.526 1725.52 282.06V229.003C1725.52 223.537 1724.57 218.898 1722.7 215.084C1720.83 211.269 1718.11 208.378 1714.49 206.362C1710.87 204.371 1706.42 203.374 1701.18 203.351C1695.93 203.374 1691.48 204.371 1687.86 206.362C1684.25 208.378 1681.52 211.269 1679.65 215.084C1677.78 218.898 1676.84 223.537 1676.84 229.003V282.06Z" fill="black"/>
<path d="M1735.87 306.549H1778.28V291.973H1751.9V204.517H1735.87V306.549Z" fill="black"/>
<path d="M1785.28 306.549H1801.31V204.517H1785.28V306.549Z" fill="black"/>
<path d="M1808.31 219.092H1825.07V306.549H1841.1V219.092H1857.87V204.517H1808.31V219.092Z" fill="black"/>
<path d="M1880.9 219.092H1908.6V204.517H1864.86V306.549H1908.6V291.973H1880.9V262.091H1902.91V247.515H1880.9V219.092Z" fill="black"/>
<path d="M1955.09 306.549H1971.56L1949.26 249.993L1971.56 204.517H1955.53L1934.83 248.682H1934.53V204.517H1918.5V306.549H1934.53V275.21L1939.49 265.882L1955.09 306.549Z" fill="black"/>
<path d="M2013.1 306.549H2029.57V204.517H2015.29V265.59H2015L1998.82 204.517H1978.71V306.549H1993.13V232.647H1993.43L2013.1 306.549Z" fill="black"/>
<path d="M2041.09 306.549H2057.12V204.517H2041.09V306.549Z" fill="black"/>
<path d="M2105.37 306.549H2121.83L2099.53 249.993L2121.83 204.517H2105.8L2085.11 248.682H2084.82V204.517H2068.79V306.549H2084.82V275.21L2089.77 265.882L2105.37 306.549Z" fill="black"/>
<path d="M2185.98 306.549H2202.45V204.517H2188.16V265.59H2187.87L2171.69 204.517H2151.57V306.549H2166V232.647H2166.29L2185.98 306.549Z" fill="black"/>
<path d="M2230 219.092H2257.69V204.517H2213.95V306.549H2257.69V291.973H2230V262.091H2252V247.515H2230V219.092Z" fill="black"/>
<path d="M2291.65 264.278H2298.94V283.081C2298.94 285.486 2298.6 287.43 2297.92 288.887C2297.24 290.345 2296.29 291.39 2295.05 292.046C2293.81 292.701 2292.33 293.018 2290.63 292.993C2288.93 293.018 2287.45 292.701 2286.21 292.046C2284.97 291.39 2284.02 290.345 2283.34 288.887C2282.66 287.43 2282.32 285.486 2282.32 283.081V227.984C2282.35 224.365 2283.1 221.79 2284.56 220.211C2286.04 218.656 2288.05 217.878 2290.63 217.927C2293.21 217.878 2295.22 218.656 2296.7 220.211C2298.16 221.79 2298.91 224.365 2298.94 227.984V238.916H2314.1V229.004C2314.1 223.538 2313.2 218.899 2311.4 215.085C2309.6 211.27 2306.93 208.379 2303.38 206.363C2299.84 204.372 2295.44 203.375 2290.19 203.352C2284.94 203.375 2280.55 204.372 2277 206.363C2273.45 208.379 2270.78 211.27 2268.98 215.085C2267.19 218.899 2266.29 223.538 2266.29 229.004V282.061C2266.29 287.527 2267.19 292.143 2268.98 295.957C2270.78 299.772 2273.45 302.686 2277 304.703C2280.55 306.694 2284.94 307.69 2290.19 307.715C2295.44 307.69 2299.84 306.694 2303.38 304.703C2306.93 302.686 2309.6 299.772 2311.4 295.957C2313.2 292.143 2314.1 287.527 2314.1 282.061V249.702H2291.65V264.278H2291.65Z" fill="black"/>
<path d="M2340.48 219.092H2368.17V204.517H2324.45V306.549H2368.17V291.973H2340.48V262.091H2362.49V247.515H2340.48V219.092Z" fill="black"/>
<path d="M2427.93 306.549C2427.15 304.678 2426.67 302.759 2426.45 300.791C2426.26 298.823 2426.16 296.612 2426.18 294.159V278.417C2426.21 274.871 2425.87 271.663 2425.21 268.845C2424.53 266.003 2423.41 263.574 2421.86 261.558C2420.3 259.542 2418.19 257.962 2415.54 256.844V256.553C2419.11 254.877 2421.74 252.35 2423.46 248.949C2425.19 245.548 2426.04 241.248 2426.04 236.001V227.984C2426.06 222.737 2425.24 218.364 2423.56 214.89C2421.91 211.417 2419.33 208.817 2415.83 207.092C2412.31 205.368 2407.79 204.517 2402.28 204.517H2378.08V306.549H2394.12V265.007H2399.65C2402.08 264.983 2404.08 265.421 2405.61 266.271C2407.16 267.121 2408.3 268.505 2409.06 270.4C2409.78 272.319 2410.15 274.846 2410.15 277.98V294.013C2410.15 296.079 2410.2 297.779 2410.25 299.115C2410.32 300.451 2410.42 301.544 2410.56 302.419C2410.68 303.269 2410.83 304.022 2411.02 304.654C2411.19 305.285 2411.39 305.917 2411.61 306.549H2427.93V306.549ZM2401.84 219.092C2404.66 219.069 2406.75 219.919 2408.06 221.595C2409.37 223.295 2410.03 225.968 2410 229.587V239.645C2410 242.341 2409.61 244.479 2408.84 246.059C2408.06 247.637 2406.97 248.779 2405.53 249.46C2404.1 250.115 2402.37 250.455 2400.38 250.432H2394.12V219.092H2401.84V219.092Z" fill="black"/>
<path d="M2436.68 306.549H2452.71V204.517H2436.68V306.549Z" fill="black"/>
<path d="M2482.59 306.549C2483.87 306.694 2485.14 306.767 2486.35 306.792C2487.57 306.84 2488.88 306.84 2490.31 306.84C2493.37 306.865 2496.26 306.476 2499.01 305.699C2501.78 304.921 2504.21 303.561 2506.37 301.666C2508.51 299.771 2510.21 297.147 2511.45 293.794C2512.69 290.467 2513.32 286.264 2513.34 281.186V204.517H2497.31V282.353C2497.29 284.952 2496.87 286.969 2496.07 288.377C2495.24 289.81 2494.15 290.783 2492.77 291.341C2491.41 291.876 2489.85 292.143 2488.13 292.118C2487.25 292.118 2486.33 292.118 2485.36 292.094C2484.41 292.094 2483.49 292.046 2482.59 291.973V306.549V306.549Z" fill="black"/>
<path d="M2540.31 219.092H2568.01V204.517H2524.28V306.549H2568.01V291.973H2540.31V262.091H2562.32V247.515H2540.31V219.092Z" fill="black"/>
<path d="M2600.08 204.517H2577.78V306.549H2591.77V234.398H2592.06L2603.72 306.549H2618.88L2629.66 233.377H2629.95V306.549H2645.12V204.517H2622.82L2612.02 276.958H2611.73L2600.08 204.517Z" fill="black"/>
<path d="M2680.97 204.517H2656.78V306.549H2681.99C2690.03 306.524 2696.08 304.459 2700.19 300.353C2704.27 296.249 2706.33 290.248 2706.33 282.353V274.044C2706.38 268.627 2705.46 264.084 2703.59 260.392C2701.72 256.723 2698.63 254.026 2694.38 252.326V252.035C2697.93 250.383 2700.55 247.856 2702.23 244.504C2703.91 241.152 2704.75 236.851 2704.73 231.628V227.984C2704.75 222.737 2703.93 218.364 2702.25 214.89C2700.6 211.417 2698.03 208.817 2694.53 207.092C2691.01 205.368 2686.49 204.517 2680.97 204.517V204.517ZM2679.95 260.635C2682.38 260.61 2684.35 260.975 2685.88 261.728C2687.41 262.505 2688.53 263.793 2689.23 265.591C2689.96 267.412 2690.3 269.89 2690.3 273.025V281.915C2690.3 284.418 2689.99 286.409 2689.35 287.892C2688.72 289.374 2687.77 290.418 2686.54 291.05C2685.32 291.681 2683.79 291.997 2681.99 291.973H2672.81V260.635H2679.95V260.635ZM2680.54 219.093C2683.35 219.069 2685.44 219.919 2686.75 221.595C2688.07 223.295 2688.72 225.968 2688.7 229.587V235.273C2688.7 237.969 2688.31 240.107 2687.53 241.685C2686.75 243.265 2685.66 244.406 2684.23 245.086C2682.79 245.743 2681.07 246.083 2679.08 246.059H2672.81V219.093H2680.54V219.093Z" fill="black"/>
<path d="M2731.99 219.092H2759.68V204.517H2715.96V306.549H2759.68V291.973H2731.99V262.091H2754V247.515H2731.99V219.092Z" fill="black"/>
<path d="M2819.44 306.549C2818.66 304.678 2818.18 302.759 2817.96 300.791C2817.77 298.823 2817.67 296.612 2817.69 294.159V278.417C2817.72 274.871 2817.38 271.663 2816.72 268.845C2816.04 266.003 2814.92 263.574 2813.37 261.558C2811.81 259.542 2809.7 257.962 2807.05 256.844V256.553C2810.62 254.877 2813.25 252.35 2814.97 248.949C2816.7 245.548 2817.55 241.248 2817.55 236.001V227.984C2817.57 222.737 2816.75 218.364 2815.07 214.89C2813.42 211.417 2810.84 208.817 2807.34 207.092C2803.82 205.368 2799.3 204.517 2793.79 204.517H2769.59V306.549H2785.63V265.007H2791.17C2793.59 264.983 2795.59 265.421 2797.12 266.271C2798.67 267.121 2799.81 268.505 2800.57 270.4C2801.3 272.319 2801.66 274.846 2801.66 277.98V294.013C2801.66 296.079 2801.71 297.779 2801.76 299.115C2801.83 300.451 2801.93 301.544 2802.07 302.419C2802.19 303.269 2802.34 304.022 2802.53 304.654C2802.7 305.285 2802.9 305.917 2803.12 306.549H2819.44V306.549ZM2793.35 219.092C2796.17 219.069 2798.26 219.919 2799.57 221.595C2800.88 223.295 2801.54 225.968 2801.51 229.587V239.645C2801.51 242.341 2801.13 244.479 2800.35 246.059C2799.57 247.637 2798.48 248.779 2797.04 249.46C2795.61 250.115 2793.89 250.455 2791.89 250.432H2785.63V219.092H2793.35V219.092Z" fill="black"/>
<path fill-rule="evenodd" clip-rule="evenodd" d="M535.613 357.364C544.869 361.923 577.096 355.929 587.391 351.746C601.294 346.098 613.96 339.136 624.66 328.399C650.522 302.446 659.892 279.428 659.892 242.378C659.892 161.535 660.042 81.1098 659.454 0.278709C654.718 -1.03993 639.922 2.70231 634.603 4.49079C628.888 6.41385 620.096 11.2245 615.23 15.0611C603.37 24.4155 594.745 35.7922 589.881 50.335C583.926 68.1407 586.142 87.8589 586.142 106.498V227.036C586.142 246.629 587.037 268.355 586.15 287.678C585.006 312.572 574.823 332.039 555.362 346.732C552.55 348.856 549.14 351.093 545.993 352.701C543.11 354.174 537.937 355.744 535.613 357.364V357.364Z" fill="#ED1E23"/>
<path fill-rule="evenodd" clip-rule="evenodd" d="M386.213 260.204C390.111 255.263 391.487 238.509 420.968 218.852C451.539 198.468 502.152 183.302 538.676 181.742C549.264 181.288 560.833 181.371 565.802 170.161L567.448 133.967C556.592 130.901 510.684 138.516 497.93 141.708C475.916 147.216 460.52 153.185 440.584 163.232C416.877 175.179 391.465 198.689 384.592 225.562C382.652 233.153 381.786 253.708 386.213 260.203L386.213 260.204Z" fill="#E5EB14"/>
<path fill-rule="evenodd" clip-rule="evenodd" d="M421.555 310.463C422.416 303.931 415.014 288.258 441.703 270.279C463.835 255.37 499.111 245.961 526.3 243.874C530.245 243.57 537.934 243.459 541.317 242.827C549.767 241.245 556.1 235.896 557.981 227.355L557.955 196.062C547.885 193.218 507.304 200.726 495.597 203.659C462.762 211.888 423.44 227.3 408.209 259.416C397.006 283.04 417.749 309.403 421.555 310.463L421.555 310.463Z" fill="#4F4B4C"/>
<path fill-rule="evenodd" clip-rule="evenodd" d="M383.439 191.387C384.302 191.146 396.612 176.206 399.942 173.707C425.155 154.779 433.506 147.049 468.307 135.445C486.938 129.234 506.236 124.736 525.725 122.029C536.204 120.573 543.939 120.028 548.094 108.612L548.464 74.062C539.573 71.551 498.896 79.575 487.651 83.2051C469.889 88.94 454.389 94.8675 438.494 104.888C423.853 114.118 411.32 124.659 401.095 138.334C391.53 151.13 380.152 175.178 383.44 191.386L383.439 191.387Z" fill="#277F39"/>
<path fill-rule="evenodd" clip-rule="evenodd" d="M530.792 357.51C524.907 354.612 507.111 354.915 490.483 343.194C475.705 332.777 475.697 320 490.479 309.582C502.56 301.068 517.505 297.822 531.925 295.526C539.422 294.331 545.438 290.565 547.67 283.516L548.463 257.427C544.01 256.169 520.833 259.199 514.888 260.217C491.23 264.269 450.926 275.729 442.615 300.413C439.469 309.756 443.058 321.803 448.746 329.429C454.838 337.596 460.052 341.371 468.72 346.703C484.171 356.204 513.03 361.115 530.792 357.51L530.792 357.51Z" fill="#4CB2E8"/>
</svg>
