<svg width="512" height="512" viewBox="0 0 512 512" fill="none" xmlns="http://www.w3.org/2000/svg">
<path d="M494.933 426.666H474.18C479.732 420.62 483.735 413.317 485.845 405.384C487.19 400.301 486.082 394.881 482.85 390.733C479.579 386.468 474.503 383.977 469.129 384H461.585C448.692 383.99 436.252 388.757 426.667 397.38V366.933H435.516C459.058 367.063 479.733 351.315 485.862 328.584C487.207 323.501 486.099 318.081 482.867 313.933C479.593 309.663 474.509 307.172 469.129 307.2H461.585C448.692 307.19 436.252 311.957 426.667 320.58V290.133H435.516C459.058 290.263 479.733 274.515 485.862 251.784C487.207 246.701 486.099 241.281 482.867 237.133C479.593 232.863 474.509 230.372 469.129 230.4H461.585C448.692 230.39 436.252 235.157 426.667 243.78V213.333H435.516C459.058 213.463 479.733 197.715 485.862 174.984C487.207 169.901 486.099 164.481 482.867 160.333C479.593 156.063 474.509 153.572 469.129 153.6H461.585C448.692 153.59 436.252 158.357 426.667 166.98V119.466C426.667 114.754 422.846 110.933 418.133 110.933C413.421 110.933 409.6 114.754 409.6 119.466V166.98C400.015 158.357 387.575 153.59 374.682 153.6H367.138C361.764 153.577 356.688 156.068 353.417 160.333C350.185 164.481 349.077 169.901 350.421 174.984C356.549 197.709 377.215 213.455 400.751 213.333H409.6V243.78C400.015 235.157 387.575 230.39 374.682 230.4H367.138C361.764 230.377 356.688 232.868 353.417 237.133C350.185 241.281 349.077 246.701 350.421 251.784C356.549 274.509 377.215 290.255 400.751 290.133H409.6V320.58C400.015 311.957 387.575 307.19 374.682 307.2H367.138C361.764 307.177 356.688 309.668 353.417 313.933C350.185 318.081 349.077 323.501 350.421 328.584C356.549 351.309 377.215 367.055 400.751 366.933H409.6V397.38C400.015 388.757 387.575 383.99 374.682 384H367.138C361.764 383.977 356.688 386.468 353.417 390.733C350.185 394.881 349.077 400.301 350.421 405.384C352.532 413.317 356.535 420.62 362.086 426.666H312.047C317.599 420.62 321.601 413.317 323.712 405.384C325.056 400.301 323.949 394.881 320.717 390.733C317.446 386.468 312.37 383.977 306.995 384H299.452C286.558 383.99 274.118 388.757 264.533 397.38V366.933H273.382C296.925 367.063 317.6 351.315 323.729 328.584C325.074 323.501 323.966 318.081 320.734 313.933C317.459 309.663 312.376 307.172 306.995 307.2H299.452C286.558 307.19 274.118 311.957 264.533 320.58V290.133H273.382C296.925 290.263 317.6 274.515 323.729 251.784C325.074 246.701 323.966 241.281 320.734 237.133C317.459 232.863 312.376 230.372 306.995 230.4H299.452C286.558 230.39 274.118 235.157 264.533 243.78V221.866C264.533 217.154 260.713 213.333 256 213.333C251.287 213.333 247.467 217.154 247.467 221.866V243.789C237.883 235.162 225.443 230.392 212.548 230.4H205.005C199.63 230.377 194.554 232.868 191.283 237.133C188.052 241.281 186.944 246.701 188.288 251.784C194.416 274.509 215.082 290.255 238.618 290.133H247.467V320.58C237.882 311.957 225.442 307.19 212.548 307.2H205.005C199.63 307.177 194.554 309.668 191.283 313.933C188.052 318.081 186.944 323.501 188.288 328.584C194.416 351.309 215.082 367.055 238.618 366.933H247.467V397.38C237.882 388.757 225.442 383.99 212.548 384H205.005C199.63 383.977 194.554 386.468 191.283 390.733C188.052 394.881 186.944 400.301 188.288 405.384C190.399 413.317 194.401 420.62 199.953 426.666H149.914C155.465 420.62 159.468 413.317 161.579 405.384C162.923 400.301 161.815 394.881 158.583 390.733C155.312 386.468 150.236 383.977 144.862 384H137.318C124.425 383.99 111.985 388.757 102.4 397.38V366.933H111.249C134.791 367.063 155.466 351.315 161.596 328.584C162.94 323.501 161.832 318.081 158.601 313.933C155.326 309.663 150.242 307.172 144.862 307.2H137.318C124.425 307.19 111.985 311.957 102.4 320.58V273.066C102.4 268.354 98.5795 264.533 93.8667 264.533C89.1538 264.533 85.3333 268.354 85.3333 273.066V320.58C75.7482 311.957 63.3083 307.19 50.4149 307.2H42.8715C37.497 307.177 32.4209 309.668 29.1499 313.933C25.9182 318.081 24.8102 323.501 26.1547 328.584C32.2825 351.309 52.9482 367.055 76.4843 366.933H85.3333V397.38C75.7482 388.757 63.3083 383.99 50.4149 384H42.8715C37.497 383.977 32.4209 386.468 29.1499 390.733C25.9182 394.881 24.8102 400.301 26.1547 405.384C28.2655 413.317 32.2682 420.62 37.8197 426.666H17.0667C7.64101 426.666 0 434.307 0 443.733V494.933C0 504.359 7.64101 512 17.0667 512H494.933C504.359 512 512 504.359 512 494.933V443.733C512 434.307 504.359 426.666 494.933 426.666V426.666ZM461.585 401.066H469.129H469.333C465.172 416.286 451.285 426.795 435.507 426.666H427.776C431.952 411.464 445.82 400.963 461.585 401.066V401.066ZM461.585 324.266H469.129H469.333C465.172 339.486 451.285 349.995 435.507 349.866H427.776C431.952 334.664 445.82 324.163 461.585 324.266V324.266ZM461.585 247.466H469.129H469.333C465.172 262.686 451.285 273.195 435.507 273.066H427.776C431.952 257.864 445.82 247.363 461.585 247.466V247.466ZM461.585 170.666H469.129H469.333C465.172 185.886 451.285 196.395 435.507 196.266H427.776C431.952 181.064 445.82 170.563 461.585 170.666V170.666ZM400.751 196.266C385.001 196.452 371.145 185.899 367.138 170.666H374.682C390.447 170.563 404.315 181.064 408.491 196.266H400.751ZM400.751 273.066C385.001 273.252 371.145 262.699 367.138 247.466H374.682C390.447 247.363 404.315 257.864 408.491 273.066H400.751ZM400.751 349.866C385.001 350.052 371.145 339.499 367.138 324.266H374.682C390.447 324.163 404.315 334.664 408.491 349.866H400.751ZM367.138 401.066H374.682C390.447 400.963 404.315 411.464 408.491 426.666H400.751C385.001 426.852 371.145 416.299 367.138 401.066V401.066ZM299.452 401.066H306.995H307.2C303.038 416.286 289.151 426.795 273.374 426.666H265.643C269.818 411.464 283.687 400.963 299.452 401.066V401.066ZM299.452 324.266H306.995H307.2C303.038 339.486 289.151 349.995 273.374 349.866H265.643C269.818 334.664 283.687 324.163 299.452 324.266V324.266ZM299.452 247.466H306.995H307.2C303.038 262.686 289.151 273.195 273.374 273.066H265.643C269.818 257.864 283.687 247.363 299.452 247.466V247.466ZM238.618 273.066C222.868 273.252 209.012 262.699 205.005 247.466H212.548C228.313 247.363 242.182 257.864 246.357 273.066H238.618ZM238.618 349.866C222.868 350.052 209.012 339.499 205.005 324.266H212.548C228.313 324.163 242.182 334.664 246.357 349.866H238.618ZM205.005 401.066H212.548C228.313 400.963 242.182 411.464 246.357 426.666H238.618C222.868 426.852 209.012 416.299 205.005 401.066ZM137.318 401.066H144.862H145.067C140.905 416.286 127.018 426.795 111.241 426.666H103.509C107.685 411.464 121.553 400.963 137.318 401.066ZM137.318 324.266H144.862H145.067C140.905 339.486 127.018 349.995 111.241 349.866H103.509C107.685 334.664 121.553 324.163 137.318 324.266ZM76.4843 349.866C60.7348 350.052 46.8785 339.499 42.8715 324.266H50.4149C66.1801 324.163 80.0483 334.664 84.224 349.866H76.4843ZM42.8715 401.066H50.4149C66.1801 400.963 80.0483 411.464 84.224 426.666H76.4843C60.7348 426.852 46.8785 416.299 42.8715 401.066ZM17.0667 494.933V477.866H221.867C226.58 477.866 230.4 474.046 230.4 469.333C230.4 464.62 226.58 460.8 221.867 460.8H17.0667V443.733H494.933V460.8H426.667C421.954 460.8 418.133 464.62 418.133 469.333C418.133 474.046 421.954 477.866 426.667 477.866H494.933V494.933H17.0667Z" fill="white"/>
<path d="M392.533 460.8H256C251.287 460.8 247.467 464.62 247.467 469.333C247.467 474.046 251.287 477.866 256 477.866H392.533C397.246 477.866 401.067 474.046 401.067 469.333C401.067 464.62 397.246 460.8 392.533 460.8Z" fill="white"/>
<path d="M119.467 187.734C157.169 187.734 187.733 157.17 187.733 119.467C187.733 81.7642 157.169 51.2002 119.467 51.2002C81.764 51.2002 51.2 81.7642 51.2 119.467C51.2423 157.152 81.7815 187.691 119.467 187.734ZM119.467 68.2669C147.744 68.2669 170.667 91.1899 170.667 119.467C170.667 147.744 147.744 170.667 119.467 170.667C91.1896 170.667 68.2666 147.744 68.2666 119.467C68.2948 91.2016 91.2013 68.2951 119.467 68.2669Z" fill="white"/>
<path d="M128 25.6V8.53333C128 3.8205 124.18 0 119.467 0C114.754 0 110.933 3.8205 110.933 8.53333V25.6C110.933 30.3128 114.754 34.1333 119.467 34.1333C124.18 34.1333 128 30.3128 128 25.6Z" fill="white"/>
<path d="M72.5334 46.7116C75.5805 46.7085 78.3948 45.0808 79.917 42.4411C81.4391 39.8015 81.4383 36.5505 79.9148 33.9116L71.3814 19.1233C69.0091 15.0767 63.8154 13.7036 59.7531 16.049C55.6908 18.3944 54.2833 23.5789 56.6017 27.6566L65.135 42.4449C66.6608 45.0877 69.4818 46.7146 72.5334 46.7116Z" fill="white"/>
<path d="M42.4449 65.1436L27.6566 56.6102C25.015 55.0616 21.746 55.0471 19.0907 56.5723C16.4354 58.0974 14.8009 60.9284 14.8076 63.9906C14.8144 67.0527 16.4613 69.8765 19.1233 71.39L33.9116 79.9233C35.2075 80.6754 36.6799 81.07 38.1782 81.0668C42.0403 81.0666 45.4208 78.4726 46.4204 74.7421C47.42 71.0116 45.7895 67.0748 42.4449 65.1436V65.1436Z" fill="white"/>
<path d="M0 119.466C0 124.179 3.8205 128 8.53333 128H25.6C30.3128 128 34.1333 124.179 34.1333 119.466C34.1333 114.754 30.3128 110.933 25.6 110.933H8.53333C3.8205 110.933 0 114.754 0 119.466Z" fill="white"/>
<path d="M33.9116 159.01L19.1233 167.543C16.4613 169.057 14.8144 171.881 14.8076 174.943C14.8009 178.005 16.4354 180.836 19.0907 182.361C21.746 183.886 25.015 183.872 27.6566 182.323L42.4449 173.79C45.1069 172.276 46.7538 169.453 46.7606 166.39C46.7673 163.328 45.1328 160.497 42.4775 158.972C39.8222 157.447 36.5532 157.461 33.9116 159.01Z" fill="white"/>
<path d="M65.1433 196.489L56.61 211.277C55.0613 213.918 55.0468 217.187 56.572 219.843C58.0972 222.498 60.9282 224.133 63.9903 224.126C67.0525 224.119 69.8763 222.472 71.3897 219.81L79.9231 205.022C82.2415 200.944 80.8339 195.76 76.7717 193.414C72.7094 191.069 67.5157 192.442 65.1433 196.489V196.489Z" fill="white"/>
<path d="M110.933 213.333V230.4C110.933 235.113 114.754 238.933 119.467 238.933C124.18 238.933 128 235.113 128 230.4V213.333C128 208.62 124.18 204.8 119.467 204.8C114.754 204.8 110.933 208.62 110.933 213.333Z" fill="white"/>
<path d="M162.133 193.365C158.052 195.722 156.654 200.941 159.01 205.022L167.543 219.81C169.057 222.472 171.881 224.119 174.943 224.126C178.005 224.133 180.836 222.498 182.361 219.843C183.886 217.187 183.872 213.918 182.323 211.277L173.79 196.489C171.433 192.407 166.215 191.009 162.133 193.365V193.365Z" fill="white"/>
<path d="M196.489 173.79L211.277 182.323C213.918 183.872 217.187 183.886 219.843 182.361C222.498 180.836 224.133 178.005 224.126 174.943C224.119 171.881 222.472 169.057 219.81 167.543L205.022 159.01C200.944 156.692 195.76 158.099 193.414 162.162C191.069 166.224 192.442 171.418 196.489 173.79Z" fill="white"/>
<path d="M204.8 119.466C204.8 124.179 208.621 128 213.333 128H230.4C235.113 128 238.933 124.179 238.933 119.466C238.933 114.754 235.113 110.933 230.4 110.933H213.333C208.621 110.933 204.8 114.754 204.8 119.466Z" fill="white"/>
<path d="M211.277 56.6102L196.489 65.1436C193.827 66.6571 192.18 69.4808 192.173 72.543C192.166 75.6051 193.801 78.4361 196.456 79.9613C199.111 81.4865 202.38 81.472 205.022 79.9233L219.81 71.39C222.472 69.8765 224.119 67.0527 224.126 63.9906C224.133 60.9284 222.498 58.0974 219.843 56.5723C217.187 55.0471 213.918 55.0616 211.277 56.6102V56.6102Z" fill="white"/>
<path d="M166.4 46.7116C169.452 46.7145 172.273 45.0877 173.798 42.4449L182.332 27.6566C183.88 25.015 183.895 21.746 182.37 19.0907C180.845 16.4354 178.014 14.8009 174.951 14.8076C171.889 14.8144 169.066 16.4613 167.552 19.1233L159.019 33.9116C157.495 36.5504 157.494 39.8015 159.017 42.4411C160.539 45.0808 163.353 46.7084 166.4 46.7116V46.7116Z" fill="white"/>
</svg>
